<svg width="72" height="68" viewBox="0 0 72 68" fill="none" xmlns="http://www.w3.org/2000/svg">
<rect width="72" height="67.0588" rx="9.17647" fill="#5352ED"/>
<path d="M22.2353 50.8235L24 39.1765L25.7647 42L24 52.9412H13.4117L20.1176 14.1176L38.1176 48.3529L43.4117 39.1765L44.4706 42L38.1176 52.9412L21.1764 21.1765L16.5882 50.8235H22.2353Z" fill="#ECECEC"/>
<path d="M23.2941 33.5294C21.8045 41.2241 21.6109 44.0934 21.1764 49.4118H18L22.2353 26.8235L36.3529 52.9412H33.5294L23.2941 33.5294Z" fill="#ECECEC"/>
<path d="M46.2353 26.8235L50.4706 52.9412H48L45.1765 32.8235L38.1176 44.4706L22.2353 14.1176H24L38.1176 39.1765C41.615 33.3005 46.2353 26.8235 46.2353 26.8235Z" fill="#ECECEC"/>
<path d="M48 14.1176L37.0588 33.8824L39.1764 35.2941C43.9495 26.5834 48 16.2353 48 16.2353H50.4706L55.4117 50.8235H54.3529L49.0588 20.1176L48 22.9412C49.3417 34.4897 50.3789 41.1171 52.2353 52.9412H58.5882L52.2353 14.1176H48Z" fill="#ECECEC"/>
</svg>
