<svg width="102" height="95" viewBox="0 0 102 95" fill="none" xmlns="http://www.w3.org/2000/svg">
<rect width="102" height="95" rx="13" fill="#5352ED"/>
<path d="M31.5 72L34 55.5L36.5 59.5L34 75H19L28.5 20L54 68.5L61.5 55.5L63 59.5L54 75L30 30L23.5 72H31.5Z" fill="#ECECEC"/>
<path d="M33 47.5C30.8897 58.4008 30.6154 62.4656 30 70H25.5L31.5 38L51.5 75H47.5L33 47.5Z" fill="#ECECEC"/>
<path d="M65.5 38L71.5 75H68L64 46.5L54 63L31.5 20H34L54 55.5C58.9546 47.1757 65.5 38 65.5 38Z" fill="#ECECEC"/>
<path d="M68 20L52.5 48L55.5 50C62.2618 37.6598 68 23 68 23H71.5L78.5 72H77L69.5 28.5L68 32.5C69.9007 48.8605 71.3701 58.2492 74 75H83L74 20H68Z" fill="#ECECEC"/>
</svg>
