<svg width="32" height="29" viewBox="0 0 32 29" fill="none" xmlns="http://www.w3.org/2000/svg">
<g clip-path="url(#clip0_5708_3125)">
<path d="M1.15059 0.19198C1.00207 0.190059 0.854925 0.220678 0.719496 0.281685C0.584067 0.342692 0.463636 0.432608 0.366661 0.545119C0.269686 0.65763 0.198518 0.790007 0.158156 0.932954C0.117794 1.0759 0.109216 1.22595 0.133024 1.37257L4.45279 27.5962C4.50659 27.9171 4.67176 28.2088 4.91927 28.42C5.16678 28.6313 5.48081 28.7485 5.80619 28.7512H26.5297C26.7736 28.7543 27.0105 28.6697 27.1972 28.5128C27.384 28.356 27.5082 28.1372 27.5472 27.8964L31.8671 1.37765C31.8908 1.23105 31.8822 1.08101 31.8418 0.938087C31.8014 0.795162 31.7303 0.662811 31.6333 0.550326C31.5363 0.437842 31.4159 0.347951 31.2804 0.286967C31.145 0.225982 30.9979 0.195382 30.8494 0.197314L1.15059 0.19198ZM19.3403 19.1449H12.7258L10.9348 9.78803H20.943L19.3403 19.1449Z" fill="#2684FF"/>
<path d="M30.467 9.7749H20.9245L19.323 19.1243H12.7139L4.91008 28.3873C5.15743 28.6011 5.47277 28.72 5.79974 28.7227H26.5119C26.7556 28.7259 26.9923 28.6414 27.1789 28.4846C27.3656 28.3278 27.4897 28.1093 27.5287 27.8687L30.467 9.7749Z" fill="url(#paint0_linear_5708_3125)"/>
</g>
<defs>
<linearGradient id="paint0_linear_5708_3125" x1="7165.96" y1="614.145" x2="4229.52" y2="4345.49" gradientUnits="userSpaceOnUse">
<stop offset="0.18" stop-color="#0052CC"/>
<stop offset="1" stop-color="#2684FF"/>
</linearGradient>
<clipPath id="clip0_5708_3125">
<rect width="32" height="28.8768" fill="white"/>
</clipPath>
</defs>
</svg>
