<svg width="32" height="32" viewBox="0 0 32 32" fill="none" xmlns="http://www.w3.org/2000/svg">
<path d="M4.7035 28.5306L2.19 0.337891H29.81L27.294 28.5264L15.9833 31.6621L4.7035 28.5306Z" fill="#1572B6"/>
<path d="M16.0002 29.2656L25.14 26.7316L27.2902 2.64307H16.0002V29.2656Z" fill="#33A9DC"/>
<path d="M16.0002 12.8574H20.5757L20.8917 9.31664H16.0002V5.85889H24.6707L24.5877 6.78664L23.7377 16.3151H16.0002V12.8574Z" fill="white"/>
<path d="M16.0208 21.8374L16.0055 21.8419L12.1548 20.8022L11.9085 18.0444H8.438L8.92225 23.4737L16.005 25.4394L16.0208 25.4349V21.8374Z" fill="#EBEBEB"/>
<path d="M20.2818 16.1689L19.8653 20.7994L16.0088 21.8404V25.4379L23.0973 23.4734L23.1493 22.8892L23.7508 16.1689H20.2818Z" fill="white"/>
<path d="M16.012 5.85889V9.31664H7.65999L7.59074 8.53964L7.43324 6.78664L7.35049 5.85889H16.012ZM16.0002 12.8579V16.3156H12.198L12.1287 15.5386L11.971 13.7856L11.8885 12.8579H16.0002Z" fill="#EBEBEB"/>
</svg>
