<svg width="32" height="32" viewBox="0 0 32 32" fill="none" xmlns="http://www.w3.org/2000/svg">
<path d="M15.5 2.01216C18.2676 1.91164 21.0028 2.63419 23.3597 4.08842C25.7165 5.54266 27.5891 7.66323 28.7406 10.1819C29.8921 12.7006 30.2707 15.5042 29.8286 18.238C29.3865 20.9719 28.1434 23.5133 26.2567 25.5406C24.3701 27.5679 21.9245 28.9901 19.2294 29.6273C16.5343 30.2645 13.7107 30.0881 11.1159 29.1203C8.52111 28.1526 6.27161 26.437 4.65198 24.1905C3.03235 21.9441 2.11536 19.2678 2.017 16.5002C1.8876 12.792 3.23457 9.18398 5.76232 6.46782C8.29007 3.75165 11.7921 2.14922 15.5 2.01216Z" fill="black"/>
<path d="M23.5 11.561L20.865 18.173L18.214 11.561H16.044L19.763 20.586L17.12 26.95L19.02 27.325L25.556 11.561H23.5Z" fill="#D2D2D2"/>
<path d="M11.924 13.2329C12.4468 13.2228 12.9606 13.3699 13.3989 13.6552C13.8371 13.9404 14.1796 14.3507 14.382 14.8329L14.418 14.9119L16.267 14.2889L16.227 14.1949C15.8749 13.3499 15.2762 12.6308 14.5091 12.1313C13.742 11.6318 12.8422 11.3752 11.927 11.3949C11.3023 11.3751 10.6801 11.4821 10.098 11.7095C9.51585 11.9369 8.98585 12.2799 8.54 12.7179C8.0946 13.143 7.74245 13.656 7.50591 14.2245C7.26937 14.7929 7.15362 15.4043 7.166 16.0199C7.1537 16.6333 7.26925 17.2425 7.50529 17.8087C7.74133 18.375 8.09269 18.8859 8.537 19.3089C8.98276 19.7471 9.51273 20.0903 10.0949 20.3178C10.677 20.5454 11.2993 20.6526 11.924 20.6329C12.8391 20.6524 13.7389 20.3956 14.5059 19.8962C15.2729 19.3967 15.8717 18.6777 16.224 17.8329L16.264 17.7389L14.412 17.1149L14.377 17.1979C14.1795 17.6828 13.8383 18.0956 13.3992 18.3807C12.9602 18.6659 12.4443 18.8097 11.921 18.7929C11.5635 18.7999 11.2084 18.7331 10.8778 18.5967C10.5473 18.4602 10.2485 18.2571 10 17.9999C9.74402 17.7393 9.54298 17.4299 9.40882 17.0901C9.27466 16.7504 9.21011 16.3871 9.219 16.0219C9.20975 15.6534 9.27406 15.2867 9.40816 14.9433C9.54225 14.5999 9.74345 14.2866 10 14.0219C10.2489 13.7634 10.5488 13.5596 10.8807 13.4232C11.2127 13.2869 11.5693 13.221 11.928 13.2299L11.924 13.2329Z" fill="#D2D2D2"/>
<path d="M22.251 25.7998C24.7223 24.2441 26.5171 21.8148 27.278 18.9954C28.0389 16.1761 27.7101 13.1736 26.357 10.5858L28.039 9.7168C29.6131 12.7219 29.9965 16.21 29.1127 19.4853C28.229 22.7606 26.1431 25.5823 23.271 27.3878L22.251 25.7998Z" fill="url(#paint0_linear_5708_2542)"/>
<path d="M2.905 19.5619C2.58342 18.3978 2.42061 17.1956 2.421 15.9879C2.43984 13.2562 3.28197 10.5937 4.83742 8.34804C6.39287 6.10237 8.58934 4.37793 11.14 3.3999L11.824 5.1549C9.62979 5.99713 7.74043 7.48125 6.4025 9.41357C5.06457 11.3459 4.34023 13.6367 4.324 15.9869C4.32359 17.026 4.46352 18.0603 4.74 19.0619L2.905 19.5619Z" fill="#58D09E"/>
<path d="M11.049 3.44413C14.1865 2.22786 17.6624 2.21166 20.8112 3.39864C23.9599 4.58562 26.5601 6.89235 28.114 9.87713L26.426 10.7351C25.0883 8.16691 22.8505 6.18223 20.1408 5.16099C17.4311 4.13975 14.44 4.15368 11.74 5.20013L11.049 3.44713V3.44413Z" fill="#58D09E"/>
<path d="M17.488 26.0598L17.026 27.1698C16.9814 27.2773 16.9071 27.3699 16.8119 27.4368C16.7166 27.5038 16.6043 27.5422 16.488 27.5478C16.332 27.5548 16.174 27.5588 16.015 27.5588C13.3685 27.5543 10.8005 26.6593 8.72458 25.0178C6.64864 23.3763 5.18558 21.0839 4.571 18.5098L2.719 18.9248C3.40498 21.8904 5.07153 24.5379 7.449 26.4388C9.87715 28.3751 12.8893 29.4325 15.995 29.4388H16.023C16.205 29.4388 16.387 29.4388 16.567 29.4278C17.0449 29.4076 17.5072 29.2518 17.8998 28.9785C18.2924 28.7053 18.5991 28.3259 18.784 27.8848L19.384 26.4348L17.484 26.0598H17.488Z" fill="url(#paint1_linear_5708_2542)"/>
<defs>
<linearGradient id="paint0_linear_5708_2542" x1="28.7875" y1="12.5958" x2="24.6575" y2="27.5987" gradientUnits="userSpaceOnUse">
<stop stop-color="#58D09E"/>
<stop offset="1"/>
</linearGradient>
<linearGradient id="paint1_linear_5708_2542" x1="4.54003" y1="19.5138" x2="16.7632" y2="29.1458" gradientUnits="userSpaceOnUse">
<stop stop-color="#58D09E"/>
<stop offset="1" stop-color="#D2D2D2"/>
</linearGradient>
</defs>
</svg>
