<svg width="32" height="32" viewBox="0 0 32 32" fill="none" xmlns="http://www.w3.org/2000/svg">
<path fill-rule="evenodd" clip-rule="evenodd" d="M18.45 12.7002H21.275V15.5752H22.7C23.35 15.5752 24.025 15.4502 24.65 15.2502C24.95 15.1502 25.3 15.0002 25.6 14.8252C25.2 14.3002 25 13.6502 24.95 13.0002C24.875 12.1252 25.05 10.9752 25.65 10.3002L25.95 9.9502L26.3 10.2252C27.2 10.9502 27.925 11.9252 28.075 13.0752C29.15 12.7502 30.4 12.8252 31.35 13.3752L31.725 13.6002L31.525 14.0002C30.725 15.5502 29.05 16.0502 27.425 15.9502C24.975 22.0252 19.675 24.9002 13.225 24.9002C9.89999 24.9002 6.84999 23.6502 5.09999 20.7002L5.07499 20.6502L4.82499 20.1252C4.22499 18.8252 4.04999 17.4002 4.17499 15.9752L4.22499 15.5502H6.62499V12.7002H9.44999V9.9002H15.075V7.0752H18.45V12.7002Z" fill="#3A4D54"/>
<path d="M27.6 13.7751C27.8 12.3001 26.7 11.1501 26 10.6001C25.225 11.5001 25.1 13.9001 26.325 14.9001C25.625 15.5001 24.2 16.0751 22.7 16.0751H4.64999C4.49999 17.6251 4.77499 19.0501 5.39999 20.2751L5.59999 20.6501C5.72499 20.8751 5.87499 21.0751 6.02499 21.3001C6.77499 21.3501 7.44999 21.3751 8.07499 21.3501C9.29999 21.3251 10.3 21.1751 11.075 20.9251C11.2 20.8751 11.3 20.9501 11.35 21.0501C11.4 21.1751 11.325 21.2751 11.225 21.3251C11.125 21.3501 11.025 21.4001 10.9 21.4251C10.3 21.6001 9.64999 21.7001 8.82499 21.7501H8.67499C8.34999 21.7751 7.99999 21.7751 7.62499 21.7751C7.22499 21.7751 6.84999 21.7751 6.39999 21.7501C7.89999 23.4501 10.25 24.4501 13.2 24.4501C19.45 24.4501 24.75 21.6751 27.075 15.4751C28.75 15.6501 30.35 15.2251 31.075 13.8001C29.95 13.1251 28.45 13.3501 27.6 13.7751Z" fill="#00AADA"/>
<path d="M27.6 13.7751C27.8 12.3001 26.7 11.1501 26 10.6001C25.225 11.5001 25.1 13.9001 26.325 14.9001C25.625 15.5001 24.2 16.0751 22.7 16.0751H5.70001C5.62501 18.4501 6.50001 20.2501 8.07501 21.3251C9.30001 21.3001 10.3 21.1501 11.075 20.9001C11.2 20.8501 11.3 20.9251 11.35 21.0251C11.4 21.1501 11.325 21.2501 11.225 21.3001C11.125 21.3251 11.025 21.3751 10.9 21.4001C10.3 21.5751 9.60001 21.7001 8.77501 21.7501L8.75001 21.7251C10.875 22.8251 13.95 22.8001 17.5 21.4501C21.45 19.9251 25.15 17.0251 27.725 13.7251C27.675 13.7501 27.625 13.7501 27.6 13.7751Z" fill="#28B8EB"/>
<path d="M4.67499 17.9502C4.77499 18.7752 5.02499 19.5502 5.39999 20.2752L5.59999 20.6502C5.72499 20.8752 5.87499 21.0752 6.02499 21.3002C6.77499 21.3502 7.44999 21.3752 8.07499 21.3502C9.29999 21.3252 10.3 21.1752 11.075 20.9252C11.2 20.8752 11.3 20.9502 11.35 21.0502C11.4 21.1752 11.325 21.2752 11.225 21.3252C11.125 21.3502 11.025 21.4002 10.9 21.4252C10.3 21.6002 9.59999 21.7252 8.77499 21.7752H8.67499C8.34999 21.8002 7.99999 21.8002 7.64999 21.8002C7.24999 21.8002 6.84999 21.8002 6.42499 21.7752C7.92499 23.4752 10.3 24.4752 13.25 24.4752C18.6 24.4752 23.25 22.4502 25.95 17.9752H4.67499V17.9502Z" fill="#028BB8"/>
<path d="M5.875 17.9502C6.2 19.4002 6.95 20.5502 8.075 21.3252C9.3 21.3002 10.3 21.1502 11.075 20.9002C11.2 20.8502 11.3 20.9252 11.35 21.0252C11.4 21.1502 11.325 21.2502 11.225 21.3002C11.125 21.3252 11.025 21.3752 10.9 21.4002C10.3 21.5752 9.6 21.7002 8.75 21.7502C10.875 22.8502 13.95 22.8252 17.475 21.4752C19.6 20.6502 21.675 19.4252 23.525 17.9502H5.875Z" fill="#019BC6"/>
<path fill-rule="evenodd" clip-rule="evenodd" d="M7.10001 13.175H9.55001V15.625H7.10001V13.175ZM7.30001 13.375H7.50001V15.4H7.30001V13.375ZM7.65001 13.375H7.85001V15.4H7.65001V13.375ZM8.02501 13.375H8.22501V15.4H8.02501V13.375ZM8.40001 13.375H8.60001V15.4H8.40001V13.375ZM8.77501 13.375H8.97501V15.4H8.77501V13.375ZM9.15001 13.375H9.35001V15.4H9.15001V13.375ZM9.90001 10.375H12.35V12.825H9.90001V10.375ZM10.125 10.575H10.325V12.6H10.125V10.575ZM10.475 10.575H10.675V12.6H10.475V10.575ZM10.85 10.575H11.05V12.6H10.85V10.575ZM11.225 10.575H11.425V12.6H11.225V10.575ZM11.575 10.575H11.775V12.6H11.575V10.575ZM11.95 10.575H12.15V12.6H11.95V10.575Z" fill="#00ACD3"/>
<path fill-rule="evenodd" clip-rule="evenodd" d="M9.89999 13.1748H12.35V15.6248H9.89999V13.1748ZM10.125 13.3748H10.325V15.3998H10.125V13.3748ZM10.475 13.3748H10.675V15.3998H10.475V13.3748ZM10.85 13.3748H11.05V15.3998H10.85V13.3748ZM11.225 13.3748H11.425V15.3998H11.225V13.3748ZM11.575 13.3748H11.775V15.3998H11.575V13.3748ZM11.95 13.3748H12.15V15.3998H11.95V13.3748Z" fill="#23C2EE"/>
<path fill-rule="evenodd" clip-rule="evenodd" d="M12.725 13.1748H15.175V15.6248H12.725V13.1748ZM12.925 13.3748H13.125V15.3998H12.925V13.3748ZM13.3 13.3748H13.5V15.3998H13.3V13.3748ZM13.675 13.3748H13.875V15.3998H13.675V13.3748ZM14.025 13.3748H14.225V15.3998H14.025V13.3748ZM14.4 13.3748H14.6V15.3998H14.4V13.3748ZM14.775 13.3748H14.975V15.3998H14.775V13.3748Z" fill="#00ACD3"/>
<path fill-rule="evenodd" clip-rule="evenodd" d="M12.725 10.375H15.175V12.825H12.725V10.375ZM12.925 10.575H13.125V12.6H12.925V10.575ZM13.3 10.575H13.5V12.6H13.3V10.575ZM13.675 10.575H13.875V12.6H13.675V10.575ZM14.025 10.575H14.225V12.6H14.025V10.575ZM14.4 10.575H14.6V12.6H14.4V10.575ZM14.775 10.575H14.975V12.6H14.775V10.575ZM15.55 13.175H18V15.625H15.55V13.175ZM15.75 13.375H15.95V15.4H15.75V13.375ZM16.125 13.375H16.325V15.4H16.125V13.375ZM16.475 13.375H16.675V15.4H16.475V13.375ZM16.85 13.375H17.05V15.4H16.85V13.375ZM17.225 13.375H17.425V15.4H17.225V13.375ZM17.6 13.375H17.8V15.4H17.6V13.375Z" fill="#23C2EE"/>
<path fill-rule="evenodd" clip-rule="evenodd" d="M15.55 10.375H18V12.825H15.55V10.375ZM15.75 10.575H15.95V12.6H15.75V10.575ZM16.125 10.575H16.325V12.6H16.125V10.575ZM16.475 10.575H16.675V12.6H16.475V10.575ZM16.85 10.575H17.05V12.6H16.85V10.575ZM17.225 10.575H17.425V12.6H17.225V10.575ZM17.6 10.575H17.8V12.6H17.6V10.575Z" fill="#00ACD3"/>
<path fill-rule="evenodd" clip-rule="evenodd" d="M15.55 7.5498H18V9.9998H15.55V7.5498ZM15.75 7.7498H15.95V9.7748H15.75V7.7498ZM16.125 7.7498H16.325V9.7748H16.125V7.7498ZM16.475 7.7498H16.675V9.7748H16.475V7.7498ZM16.85 7.7498H17.05V9.7748H16.85V7.7498ZM17.225 7.7498H17.425V9.7748H17.225V7.7498ZM17.6 7.7498H17.8V9.7748H17.6V7.7498Z" fill="#23C2EE"/>
<path fill-rule="evenodd" clip-rule="evenodd" d="M18.375 13.1748H20.825V15.6248H18.375V13.1748ZM18.575 13.3748H18.775V15.3998H18.575V13.3748ZM18.925 13.3748H19.125V15.3998H18.925V13.3748ZM19.3 13.3748H19.5V15.3998H19.3V13.3748ZM19.675 13.3748H19.875V15.3998H19.675V13.3748ZM20.05 13.3748H20.25V15.3998H20.05V13.3748ZM20.425 13.3748H20.625V15.3998H20.425V13.3748Z" fill="#00ACD3"/>
<path fill-rule="evenodd" clip-rule="evenodd" d="M12.2 19.5752C12.575 19.5752 12.875 19.8752 12.875 20.2502C12.875 20.6252 12.575 20.9252 12.2 20.9252C11.825 20.9252 11.525 20.6252 11.525 20.2502C11.525 19.8752 11.825 19.5752 12.2 19.5752Z" fill="#D4EEF1"/>
<path fill-rule="evenodd" clip-rule="evenodd" d="M12.2 19.7749C12.25 19.7749 12.325 19.7749 12.375 19.7999C12.325 19.8249 12.275 19.8999 12.275 19.9749C12.275 20.0749 12.375 20.1749 12.475 20.1749C12.55 20.1749 12.625 20.1249 12.65 20.0749C12.675 20.1249 12.675 20.1999 12.675 20.2499C12.675 20.5249 12.45 20.7249 12.2 20.7249C11.925 20.7249 11.725 20.4999 11.725 20.2499C11.725 19.9999 11.925 19.7749 12.2 19.7749ZM0.274994 18.1999H31.625C30.95 18.0249 29.475 17.7999 29.7 16.8999C28.45 18.3249 25.475 17.8999 24.7 17.1999C23.85 18.4249 18.95 17.9499 18.625 16.9999C17.575 18.2499 14.3 18.2499 13.25 16.9999C12.9 17.9499 7.99999 18.4249 7.17499 17.1999C6.42499 17.8999 3.42499 18.3249 2.17499 16.8999C2.44999 17.7749 0.949994 18.0249 0.274994 18.1999Z" fill="#3A4D54"/>
<path d="M14 24.4499C12.325 23.6499 11.425 22.5749 10.9 21.3999C10.275 21.5749 9.52501 21.6999 8.67501 21.7499C8.35001 21.7749 8.00001 21.7749 7.65001 21.7749C7.22501 21.7749 6.80001 21.7749 6.35001 21.7499C7.85001 23.2499 9.75001 24.4249 13.225 24.4499H14Z" fill="#BFDBE0"/>
<path d="M11.525 22.4749C11.3 22.1499 11.075 21.7749 10.9 21.3999C10.275 21.5749 9.52499 21.6999 8.67499 21.7499C9.24999 22.0499 10.1 22.3499 11.525 22.4749Z" fill="#D4EEF1"/>
</svg>
