<svg width="32" height="32" viewBox="0 0 32 32" fill="none" xmlns="http://www.w3.org/2000/svg">
<path d="M8.709 18.3507C8.93083 18.2054 9.10148 17.9942 9.19692 17.7468C9.29236 17.4994 9.30778 17.2283 9.241 16.9717C8.692 17.2067 8.718 17.7487 8.709 18.3507ZM14.924 19.8517C15.0426 19.8234 15.1539 19.7705 15.2508 19.6965C15.3476 19.6225 15.4279 19.529 15.4863 19.422C15.5447 19.315 15.5801 19.197 15.59 19.0755C15.6 18.954 15.5843 18.8317 15.544 18.7167C15.3588 18.8438 15.2061 19.0129 15.0984 19.2101C14.9906 19.4073 14.9309 19.6271 14.924 19.8517Z" fill="#E3E3F8"/>
<path d="M2.713 27.0793C2.68227 27.3305 2.71402 27.5854 2.80543 27.8214C2.89683 28.0575 3.04507 28.2673 3.237 28.4323C4.651 29.2263 9.609 28.6073 11.293 28.2323C12.1367 27.9021 12.9486 27.4961 13.719 27.0193C15.3857 26.3566 16.9678 25.4983 18.432 24.4623C19.514 23.6683 21.232 21.4333 21.417 20.0983L19.942 19.7663C19.907 21.2663 19.567 21.6083 18.231 21.9573C17.0573 22.2044 15.8504 22.2517 14.661 22.0973C14.1861 22.0177 13.7338 21.8371 13.3348 21.5676C12.9357 21.2981 12.5992 20.9461 12.348 20.5353C11.283 19.1213 12.584 18.1353 10.899 18.0353C9.127 20.2083 5.999 18.6463 4.632 18.4283C3.65692 20.8661 3.00538 23.4212 2.694 26.0283C3.05369 25.9347 3.42862 25.9151 3.7961 25.9706C4.16359 26.0262 4.51599 26.1556 4.832 26.3513C7.52 27.3903 5.172 28.3063 4.099 28.0363C3.368 27.8643 3.141 27.3843 2.713 27.0793ZM6.231 14.5373C7.27334 14.7726 8.27794 15.1515 9.216 15.6633C10.726 16.4143 10.997 16.3093 11.136 17.3563C11.153 17.5483 11.119 17.6563 11.668 17.8273C12.593 18.1153 11.136 17.6003 13.614 17.6093C15.6582 17.6706 17.6735 18.1083 19.559 18.9003C20.013 19.1883 19.926 19.5553 21.459 19.5113C21.4078 17.4045 21.0021 15.3213 20.259 13.3493C19.395 11.3423 18.252 11.0363 15.921 10.2853C14.559 9.84926 10.562 9.36926 9.321 10.1373C8.16 10.8613 7.942 11.7263 6.86 13.2443C6.59328 13.6451 6.38171 14.08 6.231 14.5373Z" fill="#FDFDFD"/>
<path d="M15.84 18.2461C16.713 18.6041 15.796 20.9171 14.583 20.3581C14.19 19.2501 15.124 18.6211 15.377 18.1241C14.5682 17.9555 13.7392 17.9057 12.916 17.9761C12.34 18.1941 12.209 19.4251 12.506 20.0011C13.906 22.7421 20.073 22.1571 19.419 20.0271C19.157 19.1631 18.913 19.0271 18.031 18.7271C17.3319 18.448 16.5917 18.2855 15.84 18.2461ZM4.869 17.9411C5.569 18.6131 7.147 18.7181 8.169 18.7701C8.3 17.4171 8.413 16.4001 9.5 16.4831C9.72307 16.8125 9.81541 17.2132 9.75902 17.607C9.70263 18.0008 9.50155 18.3595 9.195 18.6131C9.41157 18.6175 9.62616 18.5711 9.82156 18.4776C10.017 18.3841 10.1877 18.2461 10.3202 18.0747C10.4526 17.9033 10.543 17.7032 10.5841 17.4905C10.6253 17.2778 10.616 17.0585 10.557 16.8501C9.18672 15.9737 7.67913 15.3335 6.097 14.9561C5.5205 15.8738 5.10518 16.8833 4.869 17.9411Z" fill="#FDFDFD"/>
<path d="M3.228 26.5807C3.804 26.5287 5.305 26.9647 5.428 27.4537C4.494 27.5677 3.307 27.4797 3.228 26.5807ZM2.713 27.0807C3.141 27.3857 3.368 27.8667 4.101 28.0407C5.175 28.3117 7.522 27.3947 4.834 26.3557C4.51858 26.1605 4.1669 26.0311 3.80014 25.9754C3.43339 25.9197 3.05916 25.9389 2.7 26.0317C3.01138 23.4246 3.66292 20.8696 4.638 18.4317C6.008 18.6497 9.133 20.2127 10.905 18.0387C12.59 18.1387 11.289 19.1207 12.354 20.5387C12.6048 20.9488 12.9405 21.3003 13.3387 21.5696C13.7368 21.8389 14.1881 22.0196 14.662 22.0997C15.8514 22.2542 17.0583 22.2069 18.232 21.9597C19.567 21.6107 19.908 21.2697 19.943 19.7687L21.418 20.1007C21.235 21.4357 19.518 23.6707 18.433 24.4647C16.9688 25.5007 15.3867 26.3591 13.72 27.0217C12.9496 27.4985 12.1377 27.9045 11.294 28.2347C9.609 28.6097 4.652 29.2347 3.238 28.4347C3.04544 28.2695 2.89673 28.0593 2.80513 27.8227C2.71353 27.5861 2.68188 27.3305 2.713 27.0787V27.0807ZM14.924 19.8537C14.9309 19.6291 14.9906 19.4093 15.0984 19.2121C15.2061 19.0149 15.3588 18.8459 15.544 18.7187C15.5839 18.8337 15.5994 18.9557 15.5893 19.077C15.5792 19.1982 15.5438 19.316 15.4853 19.4228C15.4269 19.5295 15.3468 19.6228 15.2501 19.6967C15.1534 19.7706 15.0423 19.8234 14.924 19.8517V19.8537ZM15.84 18.2477C16.5917 18.2869 17.3318 18.449 18.031 18.7277C18.913 19.0277 19.157 19.1637 19.419 20.0277C20.074 22.1577 13.903 22.7417 12.506 20.0017C12.206 19.4257 12.34 18.1947 12.916 17.9767C13.7392 17.9063 14.5682 17.9562 15.377 18.1247C15.124 18.6247 14.19 19.2507 14.583 20.3587C15.8 20.9167 16.713 18.5997 15.84 18.2457V18.2477ZM8.709 18.3477C8.718 17.7477 8.692 17.2047 9.241 16.9687C9.30846 17.2258 9.29339 17.4975 9.19792 17.7455C9.10245 17.9935 8.93141 18.2053 8.709 18.3507V18.3477ZM4.869 17.9377C5.10332 16.8804 5.5166 15.8708 6.091 14.9527C7.67313 15.3302 9.18072 15.9704 10.551 16.8467C10.6105 17.0553 10.6202 17.2749 10.5794 17.4878C10.5386 17.7008 10.4484 17.9013 10.316 18.0731C10.1836 18.2448 10.0128 18.3831 9.81722 18.4769C9.62165 18.5706 9.40682 18.6171 9.19 18.6127C9.49655 18.3591 9.69763 18.0005 9.75402 17.6066C9.81041 17.2128 9.71807 16.8121 9.495 16.4827C8.413 16.4037 8.295 17.4167 8.168 18.7697C7.147 18.7167 5.567 18.6127 4.869 17.9407V17.9377ZM4 17.2417C3.677 16.3517 3.677 14.9637 5.047 14.8497L4.347 16.7957C4.162 17.2157 4.162 17.1197 4 17.2417ZM6.234 14.5357C6.38448 14.0789 6.5957 13.6443 6.862 13.2437C7.944 11.7247 8.162 10.8607 9.323 10.1367C10.562 9.36872 14.56 9.84872 15.923 10.2847C18.253 11.0357 19.397 11.3407 20.261 13.3487C21.0041 15.3208 21.4098 17.4039 21.461 19.5107C19.925 19.5547 20.012 19.1877 19.561 18.8997C17.6759 18.1075 15.6609 17.6695 13.617 17.6077C11.138 17.5987 12.596 18.1137 11.671 17.8257C11.121 17.6507 11.156 17.5467 11.139 17.3547C10.999 16.3077 10.729 16.4117 9.219 15.6617C8.27994 15.1501 7.27432 14.7714 6.231 14.5367L6.234 14.5357ZM21.683 14.1077C21.517 13.5577 21.823 13.5927 22.355 13.2177C22.6493 12.9802 22.9582 12.7614 23.28 12.5627C24.685 11.7767 27.304 11.6467 28.421 12.5797C28.757 12.8096 29.0312 13.1187 29.2194 13.4798C29.4076 13.8408 29.504 14.2426 29.5 14.6497C29.3488 15.4335 29.0384 16.1779 28.5881 16.837C28.1378 17.4961 27.5572 18.0559 26.882 18.4817C26.2457 19.0609 25.4759 19.4736 24.6414 19.683C23.8068 19.8924 22.9334 19.892 22.099 19.6817C21.942 19.2977 22.064 16.8627 21.881 15.9637C21.715 15.1637 21.802 15.0737 22.265 14.5937C23.627 13.1797 26.577 12.1497 28.253 13.3627C28.96 13.8867 28.759 14.0867 29.126 14.4887C29.58 13.9997 28.733 12.3587 25.609 12.4637C23.486 12.5287 22.57 14.1867 21.68 14.1087L21.683 14.1077ZM8.971 9.14272C9.21113 7.40284 10.0107 5.78828 11.249 4.54272C12.6 3.49972 14.016 2.50872 16.094 3.68672C16.609 3.97472 16.583 4.12272 16.635 4.83872C16.6875 5.34683 16.6218 5.86022 16.443 6.33872C15.064 10.7897 13.912 8.23272 9.495 9.28872C9.81552 7.95212 10.5595 6.75494 11.616 5.87572C12.816 4.71472 13.676 3.96472 15.474 4.20872C15.7332 4.5429 15.8696 4.95611 15.8601 5.37895C15.8506 5.80178 15.6959 6.20847 15.422 6.53072C14.622 7.82272 14.422 7.74372 14.54 8.62572C15.168 8.46872 15.36 7.85772 15.648 7.24672C17.402 3.58072 14.854 3.13572 13.291 3.80772C11.8201 4.7406 10.6078 6.02888 9.766 7.55372C9.644 7.79772 9.513 8.11272 9.399 8.38272L8.971 9.14272ZM15.884 9.32572C16.067 8.23472 17.15 7.96372 17.15 4.59972C17.15 3.15072 15.369 1.85072 13.039 2.81872C11.039 3.63872 10.739 4.26772 9.67 5.87372C8.67 7.39272 8.701 9.05972 7.837 10.4647C7.584 10.8647 7.357 11.0057 7.078 11.4077C6.878 11.7077 6.729 12.0797 6.528 12.4287C6.08357 13.0502 5.69506 13.7097 5.367 14.3997C4.32 14.4257 3.438 14.4437 3.333 15.5257C3.193 17.0097 3.892 17.3757 3.892 17.9347C3.883 18.5347 1.439 24.6117 2.12 28.2347C2.312 29.2347 2.967 29.2347 4.014 29.3607C6.71813 29.7416 9.47355 29.4998 12.07 28.6537L16.17 26.6897C17.4495 25.9966 18.6445 25.1577 19.731 24.1897C20.2166 23.656 20.6546 23.0808 21.04 22.4707C21.5757 21.862 21.8615 21.0733 21.84 20.2627C22.8887 20.4067 23.9012 20.7458 24.825 21.2627C24.764 21.8627 24.467 21.5767 24.467 22.1177C24.705 22.0762 24.9276 21.9718 25.1117 21.8153C25.2958 21.6588 25.4347 21.4559 25.514 21.2277C25.156 20.7037 24.781 20.7917 24.266 20.3727C24.8104 20.0728 25.3871 19.8356 25.985 19.6657C27.207 19.1597 29.293 17.6237 29.808 16.2267C29.9946 15.6011 30.0413 14.9421 29.9447 14.2964C29.8481 13.6508 29.6106 13.0343 29.249 12.4907C28.2137 11.6748 26.9175 11.2623 25.601 11.3297C24.021 11.3297 22.389 12.4647 21.115 12.9527C20.626 12.5247 20.591 12.0367 20.233 11.5647C18.9481 10.5343 17.4691 9.77288 15.884 9.32572Z" fill="#020202"/>
<path d="M21.68 14.1089C22.57 14.1879 23.487 12.5289 25.608 12.4589C28.733 12.3589 29.579 13.9949 29.125 14.4839C28.758 14.0839 28.959 13.8839 28.252 13.3579C26.576 12.1449 23.626 13.1749 22.264 14.5889C21.801 15.0689 21.714 15.1559 21.88 15.9589C22.063 16.8589 21.941 19.2929 22.098 19.6769C22.9324 19.8871 23.8058 19.8876 24.6404 19.6782C25.4749 19.4688 26.2447 19.0561 26.881 18.4769C27.5558 18.0517 28.1363 17.4928 28.5868 16.8346C29.0372 16.1763 29.348 15.4328 29.5 14.6499C29.5035 14.2426 29.4065 13.8409 29.2178 13.48C29.0291 13.1191 28.7544 12.8103 28.418 12.5809C27.301 11.6469 24.682 11.7809 23.277 12.5639C22.9552 12.7626 22.6463 12.9813 22.352 13.2189C21.819 13.5939 21.514 13.5589 21.68 14.1089Z" fill="#FDF2F2"/>
<path d="M8.971 9.14334L9.4 8.38334C9.513 8.11234 9.644 7.79834 9.767 7.55434C10.6091 6.03024 11.8214 4.74267 13.292 3.81034C14.854 3.13834 17.403 3.58334 15.649 7.24934C15.361 7.86034 15.169 8.47134 14.541 8.62834C14.419 7.74634 14.62 7.82834 15.423 6.53334C15.6969 6.2111 15.8516 5.8044 15.8611 5.38157C15.8706 4.95874 15.7342 4.54553 15.475 4.21134C13.675 3.96734 12.813 4.71734 11.617 5.87834C10.562 6.75816 9.81944 7.95527 9.5 9.29134C13.916 8.23534 15.069 10.7913 16.448 6.34134C16.6268 5.86284 16.6925 5.34946 16.64 4.84134C16.588 4.12534 16.614 3.97734 16.099 3.68934C14.022 2.51134 12.608 3.49734 11.255 4.54434C10.0147 5.78881 9.21299 7.40308 8.971 9.14334Z" fill="#FEF3F3"/>
<path d="M4 17.2416C4.166 17.1196 4.166 17.2156 4.349 16.7966L5.049 14.8506C3.673 14.9636 3.673 16.3516 4 17.2416Z" fill="#EFEFEF"/>
<path d="M5.428 27.4544C5.306 26.9654 3.805 26.5294 3.228 26.5814C3.307 27.4804 4.494 27.5684 5.428 27.4544Z" fill="#FAF1F1"/>
</svg>
