<svg width="32" height="32" viewBox="0 0 32 32" fill="none" xmlns="http://www.w3.org/2000/svg">
<path d="M9.875 12.3L15.75 8.9C15.9 8.825 16.075 8.825 16.225 8.9L22.125 12.3C22.275 12.375 22.375 12.55 22.375 12.7V19.5C22.375 19.675 22.275 19.825 22.125 19.925L16.25 23.325C16.1 23.4 15.925 23.4 15.775 23.325L9.875 19.925C9.725 19.85 9.625 19.675 9.625 19.5V12.7C9.625 12.55 9.725 12.375 9.875 12.3Z" fill="#8080F2"/>
<path d="M31.3 15.4L24.275 3.15C24.025 2.7 23.55 2.375 23.025 2.375H8.97501C8.47501 2.375 8.00001 2.7 7.72501 3.15L0.700012 15.375C0.450012 15.825 0.450012 16.375 0.700012 16.825L7.72501 28.975C7.97501 29.425 8.45001 29.65 8.97501 29.65H23.05C23.55 29.65 24.025 29.425 24.3 29L31.325 16.85C31.575 16.35 31.575 15.825 31.3 15.4ZM25.475 21.275C25.475 21.45 25.375 21.625 25.2 21.7L16.25 26.875C16.1 26.975 15.9 26.975 15.75 26.875L6.77501 21.725C6.62501 21.625 6.50001 21.475 6.50001 21.3V10.925C6.50001 10.75 6.60001 10.575 6.77501 10.5L15.75 5.325C15.9 5.225 16.1 5.225 16.25 5.325L25.225 10.5C25.375 10.6 25.5 10.75 25.5 10.925V21.275H25.475Z" fill="#4B32C3"/>
</svg>
