<svg width="32" height="32" viewBox="0 0 32 32" fill="none" xmlns="http://www.w3.org/2000/svg">
<path d="M5.8 24.5999L5.97 24.3629L13.99 9.14894L14.007 8.98794L10.472 2.34794C10.4073 2.22652 10.306 2.12852 10.1826 2.0678C10.0591 2.00709 9.91964 1.98674 9.78397 2.00963C9.64829 2.03252 9.52325 2.09749 9.42653 2.19535C9.3298 2.29321 9.2663 2.41901 9.245 2.55494L5.8 24.5999Z" fill="#FFC24A"/>
<path d="M5.89999 24.4202L6.02799 24.1702L13.965 9.11418L10.439 2.44818C10.3808 2.33226 10.2867 2.23829 10.1707 2.18036C10.0546 2.12244 9.92295 2.10367 9.79535 2.12687C9.66775 2.15007 9.5511 2.21399 9.46288 2.30905C9.37466 2.40412 9.31961 2.52521 9.30599 2.65418L5.89999 24.4202Z" fill="#FFA712"/>
<path d="M16.584 14.0102L19.216 11.3102L16.583 6.28921C16.5251 6.18115 16.4389 6.09083 16.3337 6.02786C16.2284 5.96489 16.1081 5.93164 15.9855 5.93164C15.8629 5.93164 15.7426 5.96489 15.6373 6.02786C15.5321 6.09083 15.446 6.18115 15.388 6.28921L13.981 8.97121V9.20021L16.584 14.0102Z" fill="#F4BD62"/>
<path d="M16.537 13.9002L19.096 11.2802L16.537 6.40022C16.4951 6.29459 16.4236 6.20333 16.331 6.13744C16.2384 6.07155 16.1288 6.03385 16.0152 6.02888C15.9017 6.02392 15.7892 6.05189 15.6912 6.10944C15.5932 6.16699 15.514 6.25165 15.463 6.35322L14.049 9.08222L14.007 9.22122L16.537 13.9002Z" fill="#FFA50E"/>
<path d="M5.802 24.6011L5.879 24.5231L6.158 24.4101L16.418 14.1881L16.548 13.8341L13.989 8.95605L5.802 24.6011Z" fill="#F6820C"/>
<path d="M16.912 29.7558L26.2 24.5768L23.546 8.24583C23.527 8.1307 23.4766 8.02305 23.4004 7.93468C23.3242 7.84631 23.2251 7.78064 23.1141 7.74489C23.003 7.70914 22.8842 7.70469 22.7708 7.73202C22.6573 7.75935 22.5536 7.81741 22.471 7.89983L5.8 24.5998L15.033 29.7548C15.32 29.915 15.6433 29.9991 15.972 29.9991C16.3007 29.9991 16.624 29.915 16.911 29.7548" fill="#FDE068"/>
<path d="M26.115 24.534L23.483 8.32599C23.4783 8.21588 23.4411 8.10962 23.3761 8.02066C23.311 7.9317 23.221 7.86405 23.1175 7.82625C23.014 7.78846 22.9015 7.78223 22.7945 7.80835C22.6874 7.83447 22.5905 7.89177 22.516 7.97299L5.89999 24.569L15.031 29.669C15.3158 29.8279 15.6364 29.9112 15.9625 29.9112C16.2886 29.9112 16.6092 29.8279 16.894 29.669L26.115 24.534Z" fill="#FCCA3F"/>
<path d="M16.912 29.6C16.625 29.7602 16.3017 29.8443 15.973 29.8443C15.6443 29.8443 15.321 29.7602 15.034 29.6L5.876 24.522L5.8 24.6L15.033 29.755C15.32 29.9152 15.6433 29.9993 15.972 29.9993C16.3007 29.9993 16.624 29.9152 16.911 29.755L26.2 24.577L26.177 24.437L16.912 29.6Z" fill="#EEAB37"/>
</svg>
