<svg width="32" height="32" viewBox="0 0 32 32" fill="none" xmlns="http://www.w3.org/2000/svg">
<g clip-path="url(#clip0_5708_2566)">
<path d="M31.1843 14.5943L17.4053 0.815828C16.6123 0.0223281 15.3253 0.0223281 14.531 0.815828L11.67 3.67733L15.2995 7.30683C16.1433 7.02208 17.1103 7.21308 17.7825 7.88533C18.4583 8.56183 18.6478 9.53708 18.356 10.3836L21.854 13.8818C22.7003 13.5901 23.677 13.7786 24.3525 14.4556C25.2975 15.3998 25.2975 16.9306 24.3525 17.8753C24.1279 18.1 23.8613 18.2782 23.5678 18.3998C23.2744 18.5214 22.9598 18.584 22.6421 18.584C22.3245 18.584 22.0099 18.5214 21.7164 18.3998C21.423 18.2782 21.1563 18.1 20.9318 17.8753C20.5944 17.5377 20.3644 17.1078 20.2707 16.6398C20.1771 16.1718 20.224 15.6865 20.4055 15.2451L17.1435 11.9831L17.143 20.5683C17.3797 20.6849 17.5958 20.8392 17.7828 21.0253C18.7273 21.9696 18.7273 23.4998 17.7828 24.4461C16.838 25.3903 15.3068 25.3903 14.363 24.4461C13.4185 23.5001 13.4185 21.9698 14.363 21.0253C14.5893 20.7987 14.8584 20.6194 15.1548 20.4978V11.8331C14.8582 11.7119 14.589 11.5324 14.363 11.3053C13.6475 10.5903 13.4753 9.54033 13.8423 8.66133L10.264 5.08308L0.816003 14.5306C0.434833 14.9119 0.220703 15.4289 0.220703 15.9681C0.220703 16.5072 0.434833 17.0243 0.816003 17.4056L14.5953 31.1841C15.3888 31.9776 16.6753 31.9776 17.47 31.1841L31.1845 17.4696C31.5656 17.0882 31.7796 16.5711 31.7796 16.0319C31.7795 15.4927 31.5654 14.9757 31.1843 14.5943Z" fill="#F34F29"/>
</g>
<defs>
<clipPath id="clip0_5708_2566">
<rect width="32" height="32" fill="white"/>
</clipPath>
</defs>
</svg>
