<svg width="32" height="32" viewBox="0 0 32 32" fill="none" xmlns="http://www.w3.org/2000/svg">
<path fill-rule="evenodd" clip-rule="evenodd" d="M16 1.27588C7.66325 1.27588 0.903 8.03463 0.903 16.3729C0.903 23.0434 5.22875 28.7021 11.2273 30.6986C11.9815 30.8386 12.2585 30.3711 12.2585 29.9724C12.2585 29.6124 12.2445 28.4231 12.238 27.1616C8.038 28.0749 7.15175 25.3804 7.15175 25.3804C6.465 23.6354 5.4755 23.1714 5.4755 23.1714C4.1055 22.2344 5.57875 22.2539 5.57875 22.2539C7.0945 22.3601 7.893 23.8096 7.893 23.8096C9.2395 26.1171 11.4248 25.4501 12.2863 25.0646C12.4218 24.0889 12.813 23.4226 13.2448 23.0456C9.8915 22.6644 6.36625 21.3696 6.36625 15.5849C6.36625 13.9366 6.95625 12.5899 7.922 11.5324C7.765 11.1524 7.24825 9.61688 8.068 7.53738C8.068 7.53738 9.3355 7.13163 12.2205 9.08488C13.425 8.75013 14.7168 8.58188 16 8.57613C17.2825 8.58188 18.575 8.74963 19.7817 9.08438C22.6632 7.13113 23.9293 7.53688 23.9293 7.53688C24.751 9.61613 24.2342 11.1519 24.0775 11.5319C25.0455 12.5894 25.6313 13.9361 25.6313 15.5844C25.6313 21.3829 22.0995 22.6594 18.7377 23.0334C19.2795 23.5019 19.762 24.4209 19.762 25.8291C19.762 27.8491 19.7445 29.4749 19.7445 29.9721C19.7445 30.3739 20.0165 30.8446 20.7815 30.6964C26.7765 28.6979 31.0972 23.0409 31.0972 16.3729C31.097 8.03513 24.3375 1.27588 16 1.27588Z" fill="#F5F5F9"/>
<path d="M6.621 22.9518C6.58775 23.0268 6.46975 23.0493 6.36225 22.9981C6.25225 22.9491 6.191 22.8468 6.2265 22.7716C6.259 22.6941 6.37725 22.6728 6.4865 22.7246C6.5965 22.7738 6.659 22.8771 6.62075 22.9521L6.621 22.9518ZM7.2325 23.6341C7.16075 23.7008 7.02 23.6698 6.9245 23.5641C6.8255 23.4591 6.807 23.3183 6.88025 23.2506C6.95475 23.1841 7.09125 23.2156 7.19025 23.3206C7.28875 23.4271 7.30825 23.5666 7.23275 23.6343L7.2325 23.6341ZM7.828 24.5033C7.7355 24.5678 7.584 24.5076 7.4905 24.3733C7.398 24.2388 7.398 24.0776 7.493 24.0133C7.58625 23.9488 7.7355 24.0071 7.8305 24.1401C7.9225 24.2763 7.9225 24.4378 7.828 24.5033ZM8.64325 25.3436C8.56075 25.4348 8.38425 25.4103 8.25525 25.2861C8.1235 25.1643 8.08675 24.9911 8.1695 24.9001C8.2535 24.8086 8.43075 24.8341 8.5605 24.9576C8.69225 25.0791 8.732 25.2526 8.64375 25.3433L8.64325 25.3436ZM9.76825 25.8313C9.7315 25.9496 9.562 26.0033 9.39075 25.9528C9.22 25.9011 9.10825 25.7628 9.14325 25.6433C9.17825 25.5241 9.349 25.4683 9.52125 25.5221C9.692 25.5736 9.80375 25.7111 9.76825 25.8313ZM11.004 25.9216C11.0083 26.0461 10.8633 26.1491 10.684 26.1516C10.5033 26.1558 10.357 26.0548 10.3553 25.9323C10.3553 25.8066 10.4973 25.7048 10.6778 25.7013C10.857 25.6981 11.0043 25.7981 11.0043 25.9213L11.004 25.9216ZM12.1535 25.7261C12.175 25.8473 12.0503 25.9721 11.872 26.0053C11.697 26.0378 11.5345 25.9623 11.512 25.8421C11.4905 25.7176 11.6175 25.5928 11.7925 25.5606C11.971 25.5298 12.131 25.6028 12.1535 25.7261Z" fill="#F5F5F9"/>
</svg>
