<svg width="32" height="32" viewBox="0 0 32 32" fill="none" xmlns="http://www.w3.org/2000/svg">
<g clip-path="url(#clip0_5708_2572)">
<path d="M31.1887 12.8453L31.1445 12.7323L26.8675 1.57029C26.7804 1.35148 26.6263 1.16585 26.4272 1.04004C26.2281 0.916371 25.9958 0.856794 25.7617 0.869357C25.5276 0.88192 25.303 0.966017 25.1182 1.11029C24.9355 1.25869 24.803 1.45983 24.7388 1.68629L21.851 10.5218H10.1572L7.26925 1.68629C7.20659 1.45869 7.0738 1.25662 6.88975 1.10879C6.70498 0.964517 6.48038 0.88042 6.24629 0.867857C6.01221 0.855294 5.7799 0.914871 5.58075 1.03854C5.38216 1.16491 5.22819 1.35035 5.1405 1.56879L0.8555 12.7258L0.813 12.8388C-0.45175 16.1435 0.622249 19.8868 3.44725 22.0178L3.462 22.0293L3.50125 22.057L10.0165 26.936L13.2397 29.3755L15.2032 30.858C15.4329 31.0324 15.7134 31.1268 16.0017 31.1268C16.2901 31.1268 16.5706 31.0324 16.8002 30.858L18.7638 29.3755L21.987 26.936L28.5415 22.0275L28.5578 22.0145C31.376 19.883 32.4482 16.1465 31.1887 12.8453Z" fill="#E24329"/>
<path d="M31.1887 12.8454L31.1445 12.7324C29.0605 13.1602 27.0966 14.043 25.3932 15.3177L16 22.4204C19.1988 24.8404 21.9835 26.9429 21.9835 26.9429L28.538 22.0344L28.5543 22.0214C31.377 19.8897 32.4507 16.1494 31.1887 12.8454Z" fill="#FC6D26"/>
<path d="M10.0165 26.9429L13.2397 29.3824L15.2032 30.8649C15.4329 31.0392 15.7134 31.1336 16.0017 31.1336C16.2901 31.1336 16.5705 31.0392 16.8002 30.8649L18.7637 29.3824L21.987 26.9429C21.987 26.9429 19.199 24.8339 16.0002 22.4204C14.0044 23.9263 12.0098 25.4338 10.0165 26.9429Z" fill="#FCA326"/>
<path d="M6.605 15.3178C4.903 14.0406 2.93963 13.1556 0.8555 12.7261L0.813 12.8391C-0.45175 16.1438 0.622249 19.8871 3.44725 22.0181L3.462 22.0296L3.50125 22.0573L10.0165 26.9363L16 22.4138L6.605 15.3178Z" fill="#FC6D26"/>
</g>
<defs>
<clipPath id="clip0_5708_2572">
<rect width="32" height="32" fill="white"/>
</clipPath>
</defs>
</svg>
