<svg width="29" height="32" viewBox="0 0 29 32" fill="none" xmlns="http://www.w3.org/2000/svg">
<g clip-path="url(#clip0_5708_2819)">
<path d="M28.8479 27.936C28.8508 28.4984 28.7341 29.055 28.5056 29.569C28.2772 30.0829 27.9421 30.5424 27.5225 30.917C27.103 31.2916 26.6087 31.5728 26.0723 31.7418C25.5359 31.9109 24.9696 31.9641 24.4111 31.8978C22.378 31.5969 20.8882 29.8278 20.9378 27.7732V4.15143C20.8887 2.09464 22.3822 0.324498 24.4179 0.0269206C24.9759 -0.038404 25.5414 0.0154838 26.077 0.18502C26.6126 0.354556 27.1061 0.635876 27.5248 1.01037C27.9436 1.38487 28.2781 1.84401 28.5062 2.35742C28.7342 2.87084 28.8507 3.42682 28.8479 3.98861V27.936Z" fill="#F9AB00"/>
<path d="M3.95751 24.0218C6.14185 24.0218 7.91256 25.7926 7.91256 27.9768C7.91256 30.1612 6.14185 31.9319 3.95751 31.9319C1.77318 31.9319 0.00247192 30.1612 0.00247192 27.977C0.00247192 25.7926 1.77318 24.0218 3.95751 24.0218ZM14.364 12.0345C12.1695 12.1549 10.4666 13.9958 10.5176 16.1932V26.8168C10.5176 29.7 11.7862 31.4503 13.645 31.8234C14.2212 31.9402 14.8162 31.9273 15.3869 31.7856C15.9575 31.6438 16.4895 31.3769 16.9441 31.0041C17.3988 30.6312 17.7648 30.1619 18.0155 29.6301C18.2662 29.0982 18.3955 28.5173 18.3938 27.9293V16.0101C18.3948 15.4832 18.2908 14.9613 18.0879 14.475C17.8851 13.9887 17.5874 13.5477 17.2123 13.1776C16.8372 12.8076 16.3921 12.5159 15.9031 12.3197C15.4141 12.1234 14.8909 12.0264 14.364 12.0345Z" fill="#E37400"/>
</g>
<defs>
<clipPath id="clip0_5708_2819">
<rect width="28.85" height="32" fill="white"/>
</clipPath>
</defs>
</svg>
