<svg width="32" height="32" viewBox="0 0 32 32" fill="none" xmlns="http://www.w3.org/2000/svg">
<path d="M3.44735 23.5489L4.5974 24.2129L17.4094 2.02251L16.2593 1.35851L3.44735 23.5489Z" fill="#E535AB"/>
<path d="M28.808 21.7759H3.18399V23.1039H28.808V21.7759Z" fill="#E535AB"/>
<path d="M3.69103 22.5224L16.5078 29.9224L17.1718 28.7723L4.35503 21.3723L3.69103 22.5224Z" fill="#E535AB"/>
<path d="M14.825 3.23525L27.6418 10.6353L28.3058 9.48521L15.489 2.08521L14.825 3.23525Z" fill="#E535AB"/>
<path d="M3.69458 9.48081L4.35858 10.6309L17.1754 3.23086L16.5114 2.08081L3.69458 9.48081Z" fill="#E535AB"/>
<path d="M14.5935 2.023L27.4055 24.2134L28.5555 23.5494L15.7435 1.359L14.5935 2.023Z" fill="#E535AB"/>
<path d="M5.528 8.6001H4.2V23.4001H5.528V8.6001Z" fill="#E535AB"/>
<path d="M27.8 8.6001H26.472V23.4001H27.8V8.6001Z" fill="#E535AB"/>
<path d="M15.7017 28.3553L16.2817 29.3599L27.4289 22.9239L26.8489 21.9193L15.7017 28.3553Z" fill="#E535AB"/>
<path d="M29.56 23.8319C28.792 25.1679 27.08 25.6239 25.744 24.8559C24.408 24.0879 23.952 22.3759 24.72 21.0399C25.488 19.7039 27.2 19.2479 28.536 20.0159C29.88 20.7919 30.336 22.4959 29.56 23.8319Z" fill="#E535AB"/>
<path d="M7.27199 10.9603C6.50399 12.2963 4.79199 12.7523 3.45599 11.9843C2.11999 11.2163 1.66399 9.50429 2.43199 8.16829C3.19999 6.83229 4.91199 6.37629 6.24799 7.14429C7.58399 7.92029 8.03999 9.62429 7.27199 10.9603Z" fill="#E535AB"/>
<path d="M2.43999 23.8319C1.67199 22.4959 2.12799 20.7919 3.46399 20.0159C4.79999 19.2479 6.50399 19.7039 7.27999 21.0399C8.04799 22.3759 7.59199 24.0799 6.25599 24.8559C4.91199 25.6239 3.20799 25.1679 2.43999 23.8319Z" fill="#E535AB"/>
<path d="M24.728 10.9603C23.96 9.62429 24.416 7.92029 25.752 7.14429C27.088 6.37629 28.792 6.83229 29.568 8.16829C30.336 9.50429 29.88 11.2083 28.544 11.9843C27.208 12.7523 25.496 12.2963 24.728 10.9603Z" fill="#E535AB"/>
<path d="M16 31.6641C14.456 31.6641 13.208 30.4161 13.208 28.8721C13.208 27.3281 14.456 26.0801 16 26.0801C17.544 26.0801 18.792 27.3281 18.792 28.8721C18.792 30.4081 17.544 31.6641 16 31.6641Z" fill="#E535AB"/>
<path d="M16 5.91994C14.456 5.91994 13.208 4.67194 13.208 3.12794C13.208 1.58394 14.456 0.335938 16 0.335938C17.544 0.335938 18.792 1.58394 18.792 3.12794C18.792 4.67194 17.544 5.91994 16 5.91994Z" fill="#E535AB"/>
</svg>
