<svg width="32" height="32" viewBox="0 0 32 32" fill="none" xmlns="http://www.w3.org/2000/svg">
<path d="M4.75925 28.4688L2.258 0.415039H29.742L27.238 28.4645L15.9832 31.5845L4.75925 28.4688Z" fill="#E44D26"/>
<path d="M16 29.2L25.0945 26.6785L27.2342 2.70898H16V29.2Z" fill="#F16529"/>
<path d="M16 13.1139H11.447L11.1325 9.5904H16V6.1499H7.37225L7.45475 7.0729L8.30025 16.5547H16V13.1139ZM16 22.0497L15.9848 22.0539L12.153 21.0189L11.9083 18.2752H8.454L8.936 23.6774L15.9843 25.6339L16 25.6297V22.0497Z" fill="#EBEBEB"/>
<path d="M15.988 13.1139V16.5547H20.2248L19.8255 21.0169L15.988 22.0527V25.6324L23.0418 23.6774L23.0935 23.0962L23.902 14.0379L23.9858 13.1139H23.0588H15.988ZM15.988 6.1499V9.5904H24.299L24.368 8.8174L24.525 7.0729L24.6073 6.1499H15.988Z" fill="white"/>
</svg>
