<svg width="32" height="32" viewBox="0 0 32 32" fill="none" xmlns="http://www.w3.org/2000/svg">
<g clip-path="url(#clip0_5708_2274)">
<path d="M0.351999 0.352051H31.648V31.6483H0.351999V0.352051Z" fill="#F0DB4F"/>
<path d="M29.0868 24.1842C28.8575 22.7565 27.9265 21.5572 25.1688 20.439C24.2108 19.9987 23.1427 19.6835 22.8245 18.9575C22.7115 18.535 22.6965 18.297 22.768 18.0412C22.9732 17.2112 23.964 16.9525 24.7492 17.1905C25.255 17.36 25.7337 17.7497 26.0225 18.3715C27.373 17.497 27.3702 17.5027 28.3132 16.9017C27.968 16.3665 27.7838 16.1195 27.5578 15.8905C26.7455 14.9832 25.6387 14.516 23.8687 14.5517L22.9467 14.671C22.0632 14.8942 21.2212 15.358 20.7275 15.9797C19.246 17.6607 19.6685 20.6027 21.4712 21.8135C23.2472 23.1465 25.8562 23.4497 26.1895 24.6962C26.5137 26.2222 25.068 26.7162 23.631 26.5407C22.572 26.3205 21.983 25.7822 21.3462 24.8035C20.1742 25.4817 20.1742 25.4817 18.9692 26.1747C19.255 26.7995 19.5552 27.0822 20.0342 27.6235C22.3012 29.923 27.9742 29.81 28.9917 26.3295C29.033 26.21 29.307 25.413 29.0868 24.1842ZM17.3655 14.736H14.4382L14.4262 22.304C14.4262 23.9135 14.5095 25.389 14.2477 25.8412C13.8195 26.7307 12.7097 26.6205 12.204 26.448C11.6892 26.195 11.4275 25.8352 11.1242 25.3267C11.041 25.1807 10.9785 25.0677 10.9575 25.059L8.5775 26.5165C8.97325 27.3287 9.55625 28.0337 10.303 28.4917C11.4185 29.1612 12.9177 29.3665 14.4857 29.0065C15.5062 28.7092 16.3867 28.0935 16.8477 27.1562C17.5142 25.9275 17.3712 24.4402 17.3652 22.7952C17.3802 20.1115 17.3655 17.4282 17.3655 14.736Z" fill="#323330"/>
</g>
<defs>
<clipPath id="clip0_5708_2274">
<rect width="32" height="32" fill="white"/>
</clipPath>
</defs>
</svg>
