<svg width="32" height="32" viewBox="0 0 32 32" fill="none" xmlns="http://www.w3.org/2000/svg">
<path d="M27.089 15.7862C27.089 15.0951 26.8145 14.4322 26.3257 13.9435C25.837 13.4548 25.1742 13.1802 24.483 13.1802C24.3915 13.1801 24.3 13.1848 24.209 13.1942L27.789 2.63623H12.576L16.151 13.1852C16.099 13.1852 16.046 13.1802 15.993 13.1802C15.3707 13.1795 14.7687 13.4015 14.2958 13.8061C13.823 14.2107 13.5105 14.7711 13.4149 15.3861C13.3194 16.001 13.447 16.6298 13.7748 17.1588C14.1026 17.6878 14.6088 18.0821 15.202 18.2702C14.6477 19.2247 13.9574 20.0935 13.153 20.8492C12.1059 21.8502 10.8618 22.6223 9.50001 23.1162C8.73702 22.7546 8.14029 22.1161 7.83104 21.3305C7.52178 20.5448 7.52321 19.6709 7.83501 18.8862C7.91201 18.7062 7.99001 18.5242 8.06401 18.3422C8.64506 18.2054 9.16155 17.8733 9.52718 17.4014C9.8928 16.9295 10.0854 16.3465 10.0728 15.7497C10.0602 15.1528 9.84319 14.5784 9.45799 14.1224C9.07279 13.6664 8.54276 13.3563 7.95645 13.2441C7.37014 13.1319 6.76309 13.2243 6.23672 13.5059C5.71035 13.7875 5.29655 14.2411 5.06448 14.7911C4.8324 15.3411 4.7961 15.9541 4.96165 16.5276C5.12719 17.1012 5.48455 17.6005 5.97401 17.9422C5.14217 19.4505 4.50732 21.0593 4.08501 22.7292C3.73101 24.8642 4.08501 27.1292 5.93001 28.4102C10.23 31.3912 14.899 26.5622 19.821 25.3492C21.605 24.9092 23.563 24.9802 25.134 24.0702C25.7016 23.747 26.191 23.3027 26.5676 22.7691C26.9442 22.2354 27.1987 21.6253 27.313 20.9822C27.4175 20.3694 27.3979 19.7419 27.2551 19.1369C27.1123 18.5318 26.8494 17.9617 26.482 17.4602C26.8741 16.9917 27.0886 16.4001 27.088 15.7892L27.089 15.7862ZM18.6 15.8002V15.7912C18.6008 15.3428 18.4855 14.9017 18.2654 14.511C18.0453 14.1202 17.7279 13.7931 17.344 13.5612L20.188 7.80023L23.038 13.6142C22.6805 13.8518 22.3873 14.1742 22.1847 14.5527C21.9822 14.9312 21.8764 15.3539 21.877 15.7832V15.8402L18.6 15.8002Z" fill="#C63D14"/>
<path d="M27.726 15.786C27.725 15.0304 27.4605 14.2988 26.978 13.7172C26.4956 13.1356 25.8254 12.7406 25.083 12.6L28.677 2H11.689L15.289 12.621C14.6605 12.7615 14.0881 13.086 13.6449 13.5532C13.2016 14.0203 12.9076 14.609 12.8003 15.244C12.693 15.8789 12.7773 16.5315 13.0424 17.1184C13.3076 17.7052 13.7416 18.1998 14.289 18.539C13.8368 19.2108 13.3108 19.83 12.721 20.385C11.808 21.2585 10.7351 21.9478 9.56101 22.415C9.01003 22.0952 8.59238 21.5879 8.38421 20.9858C8.17604 20.3837 8.19123 19.7268 8.42701 19.135L8.46701 19.042L8.54101 18.867C9.20749 18.6359 9.78053 18.194 10.1733 17.6081C10.5662 17.0222 10.7574 16.3242 10.718 15.6199C10.6786 14.9156 10.4108 14.2433 9.95511 13.7048C9.49943 13.1664 8.8807 12.791 8.19261 12.6357C7.50452 12.4804 6.78455 12.5535 6.14174 12.844C5.49892 13.1344 4.96827 13.6265 4.63014 14.2456C4.292 14.8647 4.16481 15.5771 4.26782 16.2749C4.37083 16.9727 4.69843 17.618 5.20101 18.113C5.09301 18.344 4.97901 18.578 4.86201 18.819C4.21364 20.0111 3.74204 21.2912 3.46201 22.619C2.99701 25.419 3.74701 27.662 5.57301 28.927C6.55325 29.628 7.72892 30.0033 8.93401 30C11.066 30 13.223 28.929 15.334 27.881C16.8089 27.0789 18.365 26.4359 19.976 25.963C20.553 25.821 21.147 25.735 21.776 25.644C23.0574 25.5416 24.307 25.1925 25.456 24.616C26.104 24.2459 26.6626 23.7378 27.0924 23.1278C27.5222 22.5178 27.8126 21.8207 27.943 21.086C28.1555 19.8377 27.9101 18.5548 27.252 17.473C27.5633 16.965 27.7277 16.3808 27.727 15.785L27.726 15.786ZM26.453 15.786C26.453 16.1756 26.3375 16.5565 26.121 16.8805C25.9045 17.2044 25.5969 17.4569 25.2369 17.606C24.8769 17.7551 24.4808 17.7942 24.0987 17.7181C23.7165 17.6421 23.3655 17.4545 23.09 17.179C22.8145 16.9035 22.6269 16.5525 22.5509 16.1703C22.4748 15.7882 22.5139 15.3921 22.663 15.0321C22.8121 14.6721 23.0646 14.3645 23.3885 14.148C23.7125 13.9315 24.0934 13.816 24.483 13.816C25.0053 13.8165 25.5061 14.0243 25.8754 14.3936C26.2448 14.7629 26.4525 15.2637 26.453 15.786ZM26.9 3.273L23.726 12.633C23.5901 12.6659 23.4565 12.7076 23.326 12.758L20.191 6.358L17.046 12.72C16.9091 12.6726 16.7691 12.6345 16.627 12.606L13.464 3.273H26.9ZM15.993 13.816C16.3826 13.816 16.7635 13.9315 17.0875 14.148C17.4114 14.3645 17.6639 14.6721 17.8131 15.0321C17.9622 15.3921 18.0012 15.7882 17.9252 16.1703C17.8491 16.5525 17.6615 16.9035 17.386 17.179C17.1105 17.4545 16.7595 17.6421 16.3773 17.7181C15.9952 17.7942 15.5991 17.7551 15.2391 17.606C14.8792 17.4569 14.5715 17.2044 14.355 16.8805C14.1385 16.5565 14.023 16.1756 14.023 15.786C14.0235 15.2637 14.2313 14.7629 14.6006 14.3936C14.9699 14.0243 15.4707 13.8165 15.993 13.816ZM7.47101 13.835C7.86081 13.8352 8.24179 13.951 8.56573 14.1678C8.88967 14.3847 9.14201 14.6927 9.29081 15.053C9.43961 15.4132 9.47819 15.8096 9.40166 16.1918C9.32513 16.574 9.13693 16.9249 8.86088 17.2001C8.58483 17.4753 8.23334 17.6625 7.85089 17.7378C7.46845 17.8132 7.07224 17.7734 6.71242 17.6235C6.3526 17.4736 6.04533 17.2203 5.82951 16.8957C5.61369 16.5711 5.49902 16.1898 5.50001 15.8C5.50054 15.2777 5.70826 14.7769 6.07759 14.4076C6.44692 14.0383 6.94769 13.8305 7.47001 13.83L7.47101 13.835ZM26.688 20.869C26.5892 21.4202 26.3703 21.943 26.047 22.4002C25.7237 22.8575 25.3038 23.2381 24.817 23.515C23.8071 24.0054 22.7135 24.3002 21.594 24.384C20.962 24.475 20.309 24.569 19.67 24.727C17.9689 25.2196 16.3261 25.8945 14.77 26.74C11.606 28.311 8.87001 29.668 6.29801 27.883C4.41101 26.575 4.49801 24.155 4.71801 22.829C4.9769 21.6223 5.40869 20.4593 6.00001 19.376L6.27001 18.817C6.53862 18.9244 6.8205 18.995 7.10801 19.027C6.85349 19.926 6.92461 20.8859 7.30881 21.7376C7.69302 22.5892 8.36563 23.2779 9.20801 23.682L9.45301 23.808L9.71201 23.716C11.1567 23.1945 12.4765 22.3771 13.587 21.316C14.3205 20.626 14.9649 19.8469 15.505 18.997C16.1961 19.1021 16.9027 18.981 17.5193 18.6516C18.136 18.3222 18.6296 17.8023 18.9265 17.1694C19.2234 16.5366 19.3077 15.8246 19.1669 15.1399C19.0261 14.4552 18.6676 13.8343 18.145 13.37L20.183 9.249L22.242 13.449C21.6562 14.0136 21.3042 14.7779 21.256 15.5901C21.2079 16.4023 21.467 17.2029 21.982 17.8328C22.497 18.4626 23.2301 18.8757 24.0357 18.9899C24.8412 19.104 25.6603 18.911 26.33 18.449C26.7014 19.1985 26.8256 20.0464 26.685 20.871L26.688 20.869Z" fill="white"/>
</svg>
