<svg width="32" height="32" viewBox="0 0 32 32" fill="none" xmlns="http://www.w3.org/2000/svg">
<g clip-path="url(#clip0_5708_3120)">
<path d="M32 0H0V32H32V0Z" fill="white"/>
<path d="M26.0405 5.3335H5.15556V26.8446H14.2458C13.3039 26.5035 12.49 25.8805 11.9144 25.0606C11.3388 24.2407 11.0296 23.2635 11.0288 22.2617C11.0283 21.6203 11.1543 20.9849 11.3994 20.3922C11.6446 19.7995 12.0042 19.2608 12.4576 18.8071C12.911 18.3534 13.4494 17.9934 14.0419 17.7478C14.6345 17.5023 15.2697 17.3759 15.9111 17.3759C17.206 17.3759 18.4478 17.8903 19.3634 18.8059C20.2791 19.7214 20.7934 20.9634 20.7934 22.2581C20.7925 23.2599 20.4834 24.2371 19.9077 25.0571C19.3323 25.877 18.5182 26.4999 17.5764 26.8412H26.6667V5.3335H26.0405Z" fill="#141415"/>
</g>
<defs>
<clipPath id="clip0_5708_3120">
<rect width="32" height="32" fill="white"/>
</clipPath>
</defs>
</svg>
