<svg width="32" height="32" viewBox="0 0 32 32" fill="none" xmlns="http://www.w3.org/2000/svg">
<g clip-path="url(#clip0_5708_2828)">
<path d="M29.237 24.452C27.5212 24.4053 26.211 24.565 25.0907 25.0373C24.7725 25.1715 24.2645 25.1753 24.2125 25.574C24.3875 25.7573 24.4147 26.0313 24.5537 26.2568C24.8212 26.6893 25.2727 27.2698 25.6757 27.5738C26.1162 27.9063 26.57 28.2615 27.042 28.5493C27.8815 29.061 28.8187 29.3535 29.627 29.8663C30.1035 30.1688 30.5767 30.5495 31.0415 30.8905C31.2715 31.0593 31.4257 31.3215 31.7245 31.4273V31.3788C31.5675 31.1788 31.527 30.9043 31.383 30.6955L30.7487 30.0613C30.1287 29.2383 29.3415 28.5153 28.5047 27.915C27.8375 27.436 26.3442 26.789 26.066 26.0128L26.0172 25.964C26.4902 25.9105 27.044 25.7395 27.4807 25.6223C28.2142 25.4258 28.8697 25.4765 29.627 25.281L30.6512 24.9883V24.7933C30.2685 24.4005 29.9955 23.8805 29.5782 23.525C28.4857 22.595 27.2937 21.6658 26.0662 20.8908C25.3852 20.4613 24.544 20.182 23.8222 19.8178C23.5795 19.695 23.153 19.6313 22.9927 19.4273C22.6135 18.9443 22.4072 18.3318 22.115 17.769C21.5027 16.5898 20.9015 15.302 20.359 14.0613C19.989 13.2153 19.7472 12.3813 19.2857 11.6223C17.0707 7.98052 14.6867 5.78277 10.9935 3.62227C10.2075 3.16277 9.26125 2.98152 8.26125 2.74402C7.725 2.71177 7.18825 2.67902 6.65175 2.64627C6.324 2.50977 5.9835 2.10902 5.67625 1.91452C4.45275 1.14152 1.31425 -0.539733 0.408248 1.67077C-0.164002 3.06602 1.2635 4.42702 1.77375 5.13427C2.13225 5.62977 2.591 6.18602 2.847 6.74377C3.0155 7.11052 3.0445 7.47827 3.18875 7.86602C3.543 8.82152 3.85175 9.86102 4.3105 10.7438C4.54225 11.1908 4.79775 11.6613 5.091 12.0608C5.2705 12.306 5.57875 12.414 5.62725 12.7925C5.32625 13.214 5.309 13.8685 5.13975 14.4025C4.37725 16.8063 4.665 19.7943 5.774 21.5733C6.114 22.1198 6.91575 23.291 8.01775 22.8415C8.98175 22.449 8.7665 21.232 9.04225 20.1585C9.1045 19.9153 9.06625 19.7363 9.1885 19.5733V19.622L10.0667 21.378C10.7167 22.4248 11.8697 23.5185 12.8472 24.2565C13.354 24.6393 13.753 25.3008 14.4082 25.5248V25.4758H14.3595C14.2325 25.278 14.0337 25.196 13.8717 25.037C13.49 24.6628 13.0655 24.1975 12.75 23.7688C11.861 22.562 11.0755 21.2413 10.3597 19.8665C10.0177 19.2098 9.7205 18.4858 9.4325 17.8175C9.3215 17.56 9.323 17.1703 9.0915 17.037C8.77575 17.5265 8.311 17.9225 8.067 18.5005C7.67675 19.4245 7.6265 20.5515 7.48175 21.72C7.39625 21.7505 7.43425 21.7295 7.384 21.7685C6.7045 21.6048 6.466 20.9055 6.21325 20.3053C5.57475 18.7878 5.456 16.3448 6.018 14.598C6.1635 14.1458 6.8205 12.7228 6.5545 12.305C6.4275 11.8885 6.0085 11.6475 5.77425 11.3293C5.484 10.9358 5.1945 10.4178 4.99325 9.96327C4.47075 8.78052 4.22675 7.45227 3.6765 6.25627C3.41325 5.68452 2.9685 5.10577 2.60325 4.59777C2.199 4.03452 1.746 3.61977 1.4325 2.93902C1.321 2.69702 1.16975 2.30952 1.33475 2.06077C1.38725 1.89302 1.46175 1.82302 1.6275 1.76827C1.9105 1.55002 2.6985 1.84077 2.993 1.96302C3.77525 2.28802 4.42825 2.59752 5.091 3.03652C5.40875 3.24752 5.73075 3.65527 6.11525 3.76827H6.55425C7.241 3.92602 8.01025 3.81702 8.652 4.01202C9.786 4.35652 10.8022 4.89277 11.725 5.47552C14.5365 7.25102 16.8355 9.77802 18.408 12.7928C18.661 13.2783 18.7705 13.7413 18.9932 14.2563C19.4427 15.2945 20.009 16.3628 20.4562 17.3783C20.9027 18.3913 21.3377 19.4135 21.9687 20.2565C22.3005 20.6995 23.5815 20.9373 24.164 21.1835C24.572 21.3558 25.2407 21.5358 25.6275 21.7685C26.3657 22.214 27.0812 22.7443 27.774 23.2323C28.1197 23.476 29.184 24.0113 29.237 24.452ZM7.43225 5.86677C7.0745 5.86002 6.8215 5.90577 6.554 5.96402V6.01277H6.60275C6.7735 6.36327 7.07475 6.58927 7.2855 6.89102C7.448 7.23277 7.61075 7.57402 7.7735 7.91527L7.822 7.86702C8.12425 7.65377 8.2625 7.31352 8.26075 6.79352C8.13975 6.66627 8.122 6.50677 8.017 6.35477C7.878 6.15202 7.60825 6.03677 7.43225 5.86677Z" fill="#00618A"/>
</g>
<defs>
<clipPath id="clip0_5708_2828">
<rect width="32" height="32" fill="white"/>
</clipPath>
</defs>
</svg>
