<svg width="32" height="32" viewBox="0 0 32 32" fill="none" xmlns="http://www.w3.org/2000/svg">
<path d="M28.6928 7.69825L17.6685 1.297C16.9733 0.901 16.068 0.901 15.3673 1.297L4.22525 7.69825C3.50775 8.111 3 8.88675 3 9.7165V22.502C3 23.3318 3.521 24.1077 4.2385 24.5228L7.18225 26.1947C8.58925 26.8878 9.0865 26.8878 9.72675 26.8878C11.81 26.8878 13 25.628 13 23.4307V10.8082C13 10.63 12.9073 10.3647 12.7323 10.3647H11.3265C11.1485 10.3647 10.75 10.63 10.75 10.808V23.4305C10.75 24.4045 9.869 25.3737 8.2225 24.5505L5.18075 22.7973C5.07475 22.7397 5 22.624 5 22.502V9.7165C5 9.596 5.13875 9.475 5.2455 9.41325L16.3515 3.023C16.4552 2.96425 16.6077 2.96425 16.7113 3.023L27.6817 9.41175C27.7867 9.475 27.7498 9.59225 27.7498 9.7165V22.502C27.7498 22.624 27.7955 22.7428 27.6917 22.8015L16.6702 29.1955C16.5758 29.2522 16.4585 29.2522 16.355 29.1955L13.5282 27.5082C13.443 27.4587 13.3418 27.441 13.26 27.4867C12.4735 27.9325 12.3285 27.9917 11.5907 28.2475C11.4092 28.3107 11.1415 28.4205 11.6932 28.7297L15.3927 30.9182C15.7459 31.1223 16.1466 31.2297 16.5545 31.2297C16.965 31.2297 17.367 31.1232 17.7213 30.9182L28.6925 24.5228C29.41 24.1048 29.75 23.3318 29.75 22.502V9.7165C29.75 8.88675 29.41 8.113 28.6928 7.69825ZM19.9775 20.476C17.046 20.476 16.4003 19.6672 16.185 18.2095C16.16 18.0525 16.0267 17.8647 15.867 17.8647H14.4342C14.257 17.8647 14.1145 18.0798 14.1145 18.2563C14.1145 20.1228 15.1293 22.3843 19.9778 22.3843C23.4875 22.3843 25.4998 21.0205 25.4998 18.607C25.4998 16.214 23.883 15.586 20.4792 15.1355C17.0387 14.6807 16.6893 14.451 16.6893 13.645C16.6893 12.9805 16.9852 12.0942 19.5327 12.0942C21.809 12.0942 22.648 12.5827 22.9932 14.117C23.0227 14.2612 23.1545 14.3647 23.3032 14.3647H24.7418C24.8302 14.3647 24.9147 14.329 24.9767 14.2657C25.0367 14.1978 25.0685 14.1125 25.0605 14.021C24.8377 11.379 23.0825 10.1477 19.5325 10.1477C16.3747 10.1477 14.491 11.4813 14.491 13.7165C14.491 16.141 16.3652 16.811 19.3965 17.1108C23.0227 17.4662 23.3048 17.9963 23.3048 18.7095C23.3048 19.9482 22.3103 20.476 19.9775 20.476Z" fill="#83CD29"/>
</svg>
