<svg width="32" height="32" viewBox="0 0 32 32" fill="none" xmlns="http://www.w3.org/2000/svg">
<g clip-path="url(#clip0_5708_2439)">
<path d="M19.0625 0.0625L22.3273 0.084C22.3888 0.13175 22.4385 0.163 22.4913 0.1865C23.083 0.454 23.7245 0.6455 24.2578 1.001C25.8038 2.0285 27.3135 3.11125 28.8223 4.1935C29.5235 4.69525 30.2148 5.21775 30.8613 5.786C31.3418 6.208 31.5575 6.80675 31.5588 7.44525L31.5575 27.538C31.5568 27.8183 31.5088 28.1065 31.4308 28.376C31.0763 29.6045 30.29 30.4452 29.0528 30.7735C28.4003 30.9463 27.711 31 27.0343 31.0557C25.9785 31.1435 24.919 31.1865 23.8613 31.25L21.8603 31.375L18.6563 31.5635L16.6865 31.6865L13.4513 31.874L11.7793 31.9425C11.7255 31.9452 11.6758 32.0205 11.625 32.0625C10.3525 32.0625 9.08101 32.0625 7.79776 32.042C7.73626 31.9932 7.68951 31.954 7.63476 31.9385C6.85926 31.7137 6.20901 31.2852 5.70901 30.663C5.01651 29.8027 4.35851 28.916 3.69251 28.0352C2.87401 26.953 2.03426 25.8868 1.26076 24.7735C0.806116 24.123 0.562602 23.3484 0.563258 22.5548C0.561079 16.6205 0.561829 10.6862 0.565508 4.752C0.565508 4.581 0.595508 4.40825 0.625008 4.23825C0.935508 2.41125 2.28801 1.4365 3.89651 1.25575C4.73151 1.162 5.57226 1.12 6.41126 1.0645L8.62876 0.9365L9.58201 0.874L12.457 0.626L14.0508 0.501L16.6905 0.3135L18.908 0.1825C18.962 0.17875 19.0118 0.1045 19.0625 0.0625ZM6.48626 28.546C6.61926 28.7188 6.76751 28.8827 6.88376 29.0665C7.44726 29.9482 8.25501 30.2685 9.28126 30.2003L16.2335 29.7862L24.0575 29.3135L27.953 29.0625C29.1075 28.9697 29.665 28.3458 29.6875 27.1875V26.9375L29.6963 7.97175C29.6973 7.4005 29.5 7.001 29.043 6.68175L23.537 2.80175C22.6513 2.15725 21.711 1.8565 20.622 1.9425L14.456 2.3985L8.00876 2.874L3.96201 3.1895C3.14451 3.2645 2.63776 3.7645 2.49126 4.5665C2.45546 4.7712 2.43814 4.9787 2.43951 5.1865L2.42276 21.747C2.41701 22.832 2.74901 23.7345 3.39851 24.5645L6.48626 28.546Z" fill="white"/>
<path d="M6.47174 28.5294L3.39849 24.5644C2.74899 23.7344 2.41699 22.8321 2.42274 21.7471L2.43949 5.18663C2.43949 4.97962 2.45499 4.76963 2.49124 4.56663C2.63774 3.76488 3.14449 3.26488 3.96199 3.18963L8.00874 2.87413L14.4562 2.39862L20.622 1.94262C21.711 1.85662 22.6512 2.15737 23.537 2.80187C25.3525 4.12312 27.202 5.39762 29.043 6.68187C29.5 7.00112 29.6972 7.40062 29.6962 7.97187L29.6875 26.9386V27.1886C29.665 28.3459 29.1075 28.9699 27.953 29.0626C26.6562 29.1671 25.3565 29.2346 24.0575 29.3136L16.2335 29.7861L9.28124 30.2004C8.25499 30.2686 7.44724 29.9484 6.88374 29.0666C6.76749 28.8829 6.61924 28.7189 6.47174 28.5294ZM8.07324 17.0314V25.4034L8.07524 26.9649C8.08874 27.6651 8.43174 28.0139 9.13174 28.0539C9.30749 28.0636 9.48524 28.0576 9.66199 28.0469L15.5225 27.7014L26.7137 27.0616C27.4112 27.0226 27.7335 26.7169 27.7987 26.0256C27.8115 25.9014 27.8075 25.7756 27.8075 25.6506L27.8085 9.53137C27.8085 9.43762 27.8115 9.34387 27.8057 9.25012C27.7637 8.60862 27.4882 8.34687 26.8507 8.38087L21.083 8.71313C18.3814 8.87029 15.6799 9.02846 12.9785 9.18762L8.92674 9.43087C8.41024 9.46387 8.17674 9.68662 8.09874 10.1916C8.08031 10.3256 8.07212 10.4607 8.07424 10.5959L8.07324 17.0314ZM22.3662 3.84962C21.877 3.58412 21.3457 3.49612 20.7987 3.52637C19.958 3.57237 19.1172 3.64162 18.2762 3.70237L6.28899 4.57337C5.92674 4.59962 5.56249 4.62587 5.20499 4.69062C5.08499 4.71212 4.93349 4.83313 4.89649 4.94263C4.86899 5.01962 4.99024 5.17513 5.07899 5.26013C5.24324 5.41713 5.43249 5.54887 5.61149 5.69062C6.03624 6.02562 6.48824 6.33113 6.87799 6.70138C7.61724 7.40338 8.47749 7.56562 9.46299 7.49437L17.2217 7.00787L25.5742 6.50688C25.6505 6.50313 25.7267 6.47962 25.8945 6.44837C25.7412 6.28912 25.6522 6.16712 25.5362 6.08112C25.1271 5.77891 24.7139 5.48205 24.297 5.19062C23.6564 4.73929 23.0128 4.29228 22.3662 3.84962Z" fill="black"/>
<path d="M8.07324 16.9999L8.07424 10.5956C8.07424 10.4606 8.07824 10.3241 8.09874 10.1914C8.17674 9.68636 8.41024 9.46386 8.92674 9.43061L12.9785 9.18736L21.083 8.71286L26.8505 8.38061C27.4882 8.34661 27.7637 8.60911 27.8055 9.24986C27.8115 9.34361 27.8085 9.43736 27.8085 9.53111L27.8075 25.6504L27.7987 26.0254C27.7335 26.7166 27.4112 27.0224 26.7137 27.0614L15.5225 27.7011L9.66199 28.0466L9.13199 28.0536C8.43174 28.0136 8.08874 27.6649 8.07524 26.9656L8.07324 25.4031V16.9999ZM19.5147 17.0164L16.2977 12.1151C16.1855 11.9441 16.0752 11.8876 15.8682 11.9101L14.497 12.0026L11.9745 12.1874C11.3545 12.2441 10.9795 12.8271 11.1512 13.4316L12.4872 13.5459V24.3691L11.5772 24.6259C11.1737 24.7449 11.001 25.0849 11.1367 25.5194L14.2137 25.3426L15.4257 25.2431C15.9482 25.1571 16.2295 24.8369 16.2997 24.3144L14.6172 23.9306V15.7899L14.7422 15.9649L18.6092 22.0029C19.1777 22.8846 19.7614 23.7564 20.3602 24.6179C20.787 25.2304 21.416 25.4179 22.123 25.2654C22.5655 25.1709 22.9902 24.9911 23.4237 24.8514C23.6495 24.7781 23.7265 24.6434 23.7255 24.3904L23.718 13.2654C23.718 12.6151 23.718 12.6151 24.3612 12.4854C25.0117 12.3544 25.1747 12.0946 25.0262 11.3994L21.1387 11.6356C20.7157 11.6659 20.3955 12.0194 20.3312 12.4306C20.2997 12.6289 20.3407 12.7381 20.578 12.7519L21.755 12.8819V20.4266C21.0095 19.2894 20.2627 18.153 19.5147 17.0174V17.0164ZM22.3875 3.86011C23.0257 4.30081 23.662 4.74414 24.2965 5.19011C24.7135 5.48162 25.1267 5.77856 25.536 6.08086C25.652 6.16686 25.741 6.28886 25.8942 6.44811L25.574 6.50661L17.2215 7.00761L9.46274 7.49411C8.47724 7.56536 7.61699 7.40311 6.87774 6.70111C6.48799 6.33111 6.03599 6.02536 5.61099 5.69036C5.43224 5.54861 5.24299 5.41686 5.07874 5.25961C4.98999 5.17461 4.86874 5.01961 4.89624 4.94211C4.93324 4.83286 5.08574 4.71186 5.20474 4.69036C5.56224 4.62586 5.92649 4.59936 6.28874 4.57311L18.2762 3.70211L20.7987 3.52611C21.3455 3.49611 21.8767 3.58361 22.3875 3.86011Z" fill="white"/>
<path d="M19.5283 17.0349L21.755 20.4267V12.8817L20.5783 12.7517C20.3408 12.7382 20.2998 12.6289 20.331 12.4307C20.3955 12.0194 20.716 11.6659 21.1385 11.6357L25.0263 11.3994C25.1748 12.0944 25.0118 12.3544 24.3613 12.4852C23.7178 12.6142 23.7178 12.6142 23.7178 13.2654L23.7255 24.3904C23.7265 24.6434 23.6495 24.7782 23.4238 24.8514L22.123 25.2654C21.416 25.4169 20.787 25.2304 20.3605 24.6179C19.7619 23.7563 19.1782 22.8845 18.6095 22.0029L14.742 15.9647C14.7148 15.9217 14.6835 15.8817 14.617 15.7899V23.9307L16.2998 24.3144C16.2295 24.8369 15.9483 25.1569 15.4258 25.2432C15.0273 25.3084 14.6183 25.3182 14.2138 25.3427L11.1368 25.5194C11.001 25.0849 11.1738 24.7449 11.5773 24.6259L12.4873 24.3692V13.5459L11.1513 13.4317C10.9795 12.8272 11.3545 12.2442 11.9745 12.1874C12.8135 12.1092 13.6563 12.0614 14.497 12.0029C14.954 11.9717 15.413 11.9599 15.8683 11.9102C16.0753 11.8877 16.1858 11.9442 16.2978 12.1152L19.5283 17.0349Z" fill="black"/>
</g>
<defs>
<clipPath id="clip0_5708_2439">
<rect width="32" height="32" fill="white"/>
</clipPath>
</defs>
</svg>
