<svg width="32" height="32" viewBox="0 0 32 32" fill="none" xmlns="http://www.w3.org/2000/svg">
<path d="M10.9155 17.7243C9.8845 18.0168 9.20825 18.5298 8.76275 19.0423C9.1895 18.6688 9.761 18.326 10.532 18.1075C11.3207 17.884 11.9935 17.8855 12.5492 17.9928V17.558C12.075 17.5148 11.5312 17.5493 10.9152 17.724L10.9155 17.7243ZM8.71575 14.0698L4.88725 15.0785C4.88725 15.0785 4.957 15.177 5.08625 15.3085L8.33225 14.4533C8.33225 14.4533 8.28625 15.046 7.88675 15.5763C8.64225 15.0045 8.71575 14.0698 8.71575 14.0698ZM11.9205 23.0675C6.53275 24.5188 3.68225 18.2748 2.81925 15.034C2.4205 13.538 2.2465 12.405 2.2 11.674C2.1956 11.6079 2.19652 11.5415 2.20275 11.4755C1.92325 11.4925 1.7895 11.6378 1.81675 12.0575C1.86325 12.7883 2.03725 13.921 2.436 15.4175C3.2985 18.6578 6.1495 24.9018 11.5372 23.4505C12.71 23.1345 13.591 22.5593 14.2522 21.8245C13.6427 22.375 12.8797 22.8088 11.9205 23.0675ZM12.933 10.2485V10.632H15.0462C15.003 10.4963 14.9592 10.374 14.9157 10.2485H12.933Z" fill="#2D4552"/>
<path d="M15.5185 13.4067C16.469 13.6767 16.9715 14.3429 17.2372 14.9327L18.297 15.2337C18.297 15.2337 18.1525 13.1699 16.2857 12.6397C14.5395 12.1434 13.4647 13.6099 13.334 13.7997C13.842 13.4377 14.5837 13.1414 15.5185 13.4067ZM23.9537 14.9422C22.2057 14.4437 21.1315 15.9132 21.0027 16.1004C21.5112 15.7389 22.2525 15.4424 23.187 15.7089C24.136 15.9792 24.638 16.6447 24.9045 17.2349L25.9657 17.5369C25.9657 17.5369 25.8187 15.4727 23.9537 14.9422ZM22.901 20.3837L14.0857 17.9192C14.0857 17.9192 14.1812 18.4029 14.5472 19.0294L21.9692 21.1044C22.5802 20.7509 22.901 20.3837 22.901 20.3837ZM16.7895 25.6882C9.8095 23.8169 10.6535 14.9234 11.7827 10.7092C12.2477 8.97243 12.7257 7.68168 13.1222 6.81618C12.8857 6.76743 12.6897 6.89218 12.4962 7.28568C12.0752 8.13943 11.537 9.52968 11.016 11.4757C9.887 15.6899 9.043 24.5829 16.0227 26.4542C19.3125 27.3354 21.8755 25.9959 23.786 23.8924C21.9725 25.5349 19.6572 26.4559 16.7895 25.6882Z" fill="#2D4552"/>
<path d="M12.933 20.984V19.1892L7.94675 20.6032C7.94675 20.6032 8.31525 18.4625 10.9158 17.7247C11.7045 17.5012 12.3773 17.5027 12.933 17.61V10.249H15.4298C15.158 9.40898 14.895 8.76223 14.674 8.31298C14.3088 7.56923 13.934 8.06223 13.0838 8.77348C12.4848 9.27373 10.9713 10.3412 8.6935 10.955C6.41575 11.5692 4.5745 11.4062 3.806 11.2732C2.71675 11.0852 2.147 10.8462 2.2005 11.6745C2.247 12.4052 2.421 13.5382 2.81975 15.0345C3.68225 18.275 6.53325 24.5187 11.921 23.0675C13.3283 22.6882 14.3218 21.9387 15.0103 20.9835H12.933V20.984ZM4.88675 15.079L8.71575 14.0702C8.71575 14.0702 8.60425 15.5432 7.16875 15.9215C5.733 16.2995 4.88675 15.079 4.88675 15.079Z" fill="#E2574C"/>
<path d="M27.343 10.3338C26.3477 10.5083 23.96 10.7255 21.009 9.93479C18.0572 9.14429 16.099 7.76179 15.323 7.11179C14.223 6.19054 13.7392 5.55029 13.263 6.51879C12.842 7.37304 12.3037 8.76304 11.7827 10.7093C10.6537 14.9235 9.80974 23.8165 16.7895 25.6878C23.7675 27.5575 27.4825 19.4335 28.6117 15.219C29.1327 13.2733 29.3612 11.8 29.4242 10.85C29.496 9.77379 28.7567 10.0863 27.3432 10.334L27.343 10.3338ZM13.32 13.8203C13.32 13.8203 14.42 12.1095 16.2855 12.6398C18.1522 13.17 18.2967 15.2338 18.2967 15.2338L13.32 13.8203ZM17.8737 21.4968C14.5925 20.5355 14.0862 17.919 14.0862 17.919L22.901 20.3835C22.901 20.383 21.1217 22.446 17.8737 21.4968ZM20.9902 16.1193C20.9902 16.1193 22.0887 14.4098 23.9537 14.9415C25.8187 15.4725 25.9657 17.5363 25.9657 17.5363L20.9902 16.1193Z" fill="#2EAD33"/>
<path d="M11.1905 19.6833L7.94675 20.6025C7.94675 20.6025 8.29925 18.5952 10.6887 17.7995L8.852 10.9062L8.69324 10.9545C6.41549 11.5688 4.57424 11.4057 3.80575 11.2727C2.7165 11.085 2.14675 10.8457 2.20025 11.6742C2.24675 12.405 2.42075 13.5378 2.8195 15.0343C3.682 18.2745 6.53299 24.5185 11.9207 23.0672L12.0795 23.0175L11.1905 19.6833ZM4.887 15.0787L8.71599 14.07C8.71599 14.07 8.6045 15.543 7.169 15.9213C5.73325 16.2993 4.887 15.0787 4.887 15.0787Z" fill="#D65348"/>
<path d="M18.0215 21.533L17.873 21.497C14.5917 20.536 14.0855 17.9193 14.0855 17.9193L18.631 19.1898L21.0375 9.94254L21.0085 9.93479C18.0567 9.14429 16.0985 7.76179 15.3225 7.11179C14.2225 6.19054 13.7387 5.55029 13.2625 6.51879C12.842 7.37304 12.3035 8.76304 11.7825 10.7093C10.6535 14.9235 9.80949 23.8165 16.7892 25.6878L16.9322 25.72L18.0215 21.533ZM13.3197 13.8205C13.3197 13.8205 14.4197 12.1098 16.2852 12.64C18.152 13.1703 18.2965 15.234 18.2965 15.234L13.3197 13.8205Z" fill="#1D8D22"/>
<path d="M11.3557 19.636L10.4857 19.883C10.6912 21.0415 11.0535 22.1535 11.622 23.1358C11.721 23.114 11.819 23.095 11.92 23.0675C12.1734 22.9979 12.4222 22.9125 12.665 22.8118C12.0297 21.869 11.6095 20.783 11.3557 19.636ZM11.016 11.476C10.569 13.1445 10.169 15.546 10.279 17.9548C10.4857 17.8636 10.6984 17.7865 10.9155 17.724L11.0765 17.688C10.8802 15.115 11.3045 12.493 11.7827 10.7093C11.8961 10.2862 12.0173 9.86529 12.1465 9.44678C11.936 9.58137 11.721 9.70894 11.502 9.82928C11.3258 10.3739 11.1637 10.923 11.016 11.476Z" fill="#C04B41"/>
</svg>
