<svg width="32" height="32" viewBox="0 0 32 32" fill="none" xmlns="http://www.w3.org/2000/svg">
<path d="M23.4522 23.0284C23.6485 21.3951 23.5898 21.1554 24.8062 21.4201L25.115 21.4471C26.0505 21.4896 27.2743 21.2966 27.9932 20.9626C29.541 20.2444 30.4585 19.0456 28.9328 19.3604C25.4518 20.0786 25.2125 18.8999 25.2125 18.8999C28.8883 13.4461 30.4247 6.52286 29.0982 4.82811C25.4807 0.20586 19.219 2.39161 19.1143 2.44811L19.0807 2.45436C18.393 2.31161 17.6232 2.22636 16.7585 2.21236C15.1832 2.18636 13.988 2.62536 13.0812 3.31286C13.0812 3.31286 1.9105 -1.28939 2.43025 9.10061C2.54075 11.3109 5.59825 25.8251 9.24525 21.4411C10.5782 19.8381 11.8662 18.4826 11.8662 18.4826C12.5057 18.9074 13.2717 19.1244 14.0747 19.0464L14.137 18.9934C14.1175 19.1924 14.126 19.3871 14.1617 19.6176C13.2225 20.6674 13.4985 20.8516 11.6202 21.2381C9.71975 21.6296 10.8362 22.3269 11.565 22.5091C12.4487 22.7301 14.493 23.0431 15.8745 21.1096L15.8195 21.3301C16.188 21.6251 16.1632 23.4494 16.2152 24.7526C16.2675 26.0561 16.3547 27.2724 16.6205 27.9896C16.8862 28.7066 17.1997 30.5536 19.6682 30.0246C21.7312 29.5836 23.3085 28.9474 23.4522 23.0284Z" fill="black"/>
<path d="M18.8645 31.3144C17.7728 31.3144 17.0618 30.8922 16.63 30.4844C15.9783 29.8694 15.7198 29.0772 15.5653 28.6039L15.4985 28.4064C15.1875 27.5669 15.082 26.3582 15.0195 24.8017C15.01 24.5679 15.0035 24.3272 14.9963 24.0719C14.991 23.8852 14.9845 23.6509 14.975 23.4059C14.5817 23.5935 14.1642 23.7254 13.7345 23.7979C12.9648 23.9294 12.1373 23.8869 11.2745 23.6712C10.6658 23.5189 10.0333 23.2034 9.67275 22.7162C8.622 23.6364 7.61975 23.5117 7.07375 23.3294C6.1105 23.0082 5.2485 22.1054 4.43825 20.5702C3.861 19.4764 3.30275 18.0514 2.77875 16.3344C1.86625 13.3444 1.2865 10.1952 1.235 9.16119C1.073 5.92494 1.94425 3.61044 3.824 2.28269C6.78925 0.188191 11.282 1.41994 12.92 1.97919C14.0205 1.31594 15.3153 0.993192 16.7783 1.01644C17.564 1.02919 18.3123 1.09819 19.0073 1.22219C19.7323 0.994192 21.1643 0.666942 22.8035 0.687442C25.8238 0.723442 28.3265 1.90044 30.0408 4.09119C31.2643 5.65419 30.6593 8.93644 30.19 10.7539C29.5295 13.3104 28.3723 16.0294 26.9508 18.3964C27.3368 18.3992 27.896 18.3529 28.691 18.1887C30.2595 17.8649 30.7183 18.7059 30.8428 19.0824C31.3415 20.5929 29.1735 21.7344 28.4973 22.0484C27.6308 22.4507 26.218 22.6957 25.061 22.6427L25.0105 22.6394L24.7065 22.6127L24.6765 22.8662L24.6475 23.1139C24.5698 26.1137 24.1413 28.0134 23.2595 29.2687C22.3353 30.5847 21.0508 30.9534 19.9193 31.1959C19.5333 31.2784 19.1825 31.3144 18.8645 31.3144ZM16.567 20.3967C17.2718 20.9607 17.3335 22.0219 17.3888 24.0052C17.3958 24.2527 17.4023 24.4869 17.411 24.7057C17.4375 25.3682 17.4998 26.9194 17.7428 27.5749C17.777 27.6677 17.8078 27.7617 17.8403 27.8614C18.111 28.6904 18.2468 29.1062 19.4175 28.8559C20.4003 28.6452 20.9055 28.4562 21.301 27.8932C21.8758 27.0747 22.1973 25.4282 22.2563 22.9994L23.452 23.0284L22.2645 22.8859L22.2995 22.5894C22.4133 21.6119 22.4953 20.9059 23.1485 20.4389C23.6728 20.0644 24.27 20.1007 24.7458 20.1864C24.223 19.7914 24.0785 19.3282 24.04 19.1382L23.9403 18.6469L24.2205 18.2312C25.8348 15.8362 27.1658 12.8927 27.8728 10.1552C28.5993 7.34244 28.3778 5.84869 28.1563 5.56619C25.224 1.81944 20.1393 3.36644 19.6083 3.54194L19.5185 3.59044L19.0685 3.67419L18.838 3.62644C18.2025 3.49444 17.4965 3.42144 16.7398 3.40919C15.5508 3.38919 14.5915 3.67019 13.805 4.26694L13.2593 4.68069L12.626 4.41994C11.273 3.86669 7.299 2.75444 5.202 4.23969C4.038 5.06419 3.50775 6.67969 3.62575 9.04144C3.66475 9.82119 4.1945 12.7729 5.0685 15.6357C6.27625 19.5919 7.37375 20.9062 7.832 21.0589C7.912 21.0859 8.1195 20.9247 8.326 20.6767C9.18701 19.6445 10.0786 18.6383 10.9995 17.6592L11.692 16.9304L12.5293 17.4867C12.8668 17.7109 13.239 17.8382 13.6213 17.8622L15.618 16.1592L15.3288 19.1112C15.3223 19.1774 15.319 19.2677 15.345 19.4352L15.432 19.9947L15.0545 20.4167L15.011 20.4657L16.108 20.9719L16.567 20.3967Z" fill="black"/>
<path d="M28.9328 19.3601C25.4515 20.0784 25.2122 18.8996 25.2122 18.8996C28.888 13.4456 30.4245 6.52211 29.0985 4.82786C25.481 0.205856 19.2188 2.39161 19.1143 2.44836L19.0805 2.45436C18.3927 2.31161 17.623 2.22661 16.7577 2.21261C15.1825 2.18686 13.9878 2.62561 13.081 3.31311C13.081 3.31311 1.91 -1.28889 2.4295 9.10086C2.54 11.3114 5.5975 25.8256 9.2445 21.4416C10.5775 19.8386 11.8652 18.4831 11.8652 18.4831C12.505 18.9079 13.2708 19.1249 14.0735 19.0469L14.136 18.9939C14.1165 19.1929 14.1255 19.3876 14.161 19.6181C13.2215 20.6679 13.4975 20.8521 11.6193 21.2386C9.71875 21.6301 10.8352 22.3274 11.5642 22.5096C12.4478 22.7306 14.4922 23.0436 15.8735 21.1101L15.8182 21.3306C16.1865 21.6256 16.445 23.2486 16.4018 24.7199C16.3583 26.1911 16.3292 27.2014 16.6195 27.9904C16.9095 28.7794 17.1985 30.5544 19.6675 30.0254C21.7305 29.5834 22.7995 28.4376 22.9485 26.5266C23.054 25.1679 23.2928 25.3689 23.308 24.1541L23.4998 23.5791C23.7208 21.7374 23.5347 21.1434 24.806 21.4196L25.1147 21.4466C26.0502 21.4891 27.2745 21.2961 27.9932 20.9621C29.5408 20.2444 30.4585 19.0454 28.9328 19.3601Z" fill="#336791"/>
<path d="M18.9892 30.5764C16.9312 30.5764 16.2792 28.9467 16.0125 28.2802C15.622 27.3034 15.5377 23.5129 15.6247 20.4044C15.626 20.352 15.6377 20.3003 15.659 20.2524C15.6804 20.2045 15.711 20.1613 15.7491 20.1253C15.7872 20.0893 15.8321 20.0612 15.8811 20.0426C15.9301 20.024 15.9823 20.0152 16.0347 20.0169C16.0871 20.0183 16.1387 20.0301 16.1865 20.0514C16.2343 20.0728 16.2774 20.1034 16.3134 20.1414C16.3494 20.1795 16.3776 20.2243 16.3962 20.2732C16.4149 20.3222 16.4237 20.3743 16.4222 20.4267C16.322 24.0119 16.4642 27.2609 16.7532 27.9839C17.2042 29.1112 17.8882 30.0972 19.822 29.6829C21.6577 29.2892 22.3452 28.5932 22.6515 26.8179C22.8865 25.4557 23.3512 21.5802 23.4085 20.8154C23.4123 20.7631 23.4264 20.7122 23.45 20.6654C23.4736 20.6186 23.5061 20.5769 23.5459 20.5427C23.5856 20.5085 23.6316 20.4825 23.6814 20.4661C23.7312 20.4498 23.7837 20.4434 23.836 20.4474C23.9414 20.4554 24.0394 20.5049 24.1084 20.585C24.1774 20.6652 24.2118 20.7694 24.204 20.8749C24.1442 21.6712 23.6817 25.5392 23.4377 26.9537C23.0762 29.0504 22.1415 30.0014 19.9892 30.4629C19.6235 30.5412 19.2912 30.5762 18.9892 30.5764ZM7.83024 22.6162C7.65036 22.6155 7.47174 22.586 7.30124 22.5287C5.96449 22.0827 4.69124 19.9057 3.51674 16.0574C2.62274 13.1282 2.05624 10.0707 2.00649 9.07691C1.85924 6.13091 2.61774 4.04666 4.26149 2.88241C7.51324 0.578408 12.9835 2.77241 13.2147 2.86691C13.3127 2.90692 13.3908 2.98421 13.4317 3.08178C13.4727 3.17935 13.4733 3.28919 13.4332 3.38716C13.3932 3.48512 13.3159 3.56318 13.2184 3.60416C13.1208 3.64513 13.011 3.64567 12.913 3.60566C12.8602 3.58416 7.61474 1.48266 4.72099 3.53441C3.31549 4.53091 2.67024 6.38241 2.80299 9.03716C2.84474 9.87441 3.37399 12.8584 4.27949 15.8244C5.32799 19.2599 6.52124 21.4277 7.55349 21.7719C7.71549 21.8259 8.20849 21.9902 8.91324 21.1427C9.7351 20.1556 10.5878 19.1946 11.47 18.2612C11.5438 18.1875 11.6435 18.1457 11.7478 18.1447C11.852 18.1436 11.9526 18.1834 12.0278 18.2556C12.1031 18.3277 12.1472 18.4265 12.1506 18.5307C12.1539 18.6349 12.1164 18.7363 12.046 18.8132C12.034 18.8257 10.8342 20.0799 9.52674 21.6529C8.90749 22.3977 8.31399 22.6162 7.83024 22.6162ZM25.1875 19.2549C25.1152 19.2548 25.0442 19.2351 24.9823 19.1978C24.9203 19.1605 24.8697 19.107 24.8357 19.0432C24.8018 18.9793 24.7858 18.9074 24.7896 18.8352C24.7933 18.763 24.8166 18.6932 24.857 18.6332C28.5727 13.1194 29.877 6.45716 28.76 5.02966C27.354 3.23316 25.3687 2.29491 22.859 2.24066C21.0007 2.20066 19.5237 2.67516 19.2822 2.75791L19.2215 2.78266C18.9787 2.85891 18.7925 2.72591 18.7222 2.57041C18.6822 2.48132 18.6761 2.38065 18.7052 2.28739C18.7342 2.19413 18.7964 2.11473 18.88 2.06416C18.8915 2.05741 18.928 2.04191 18.9872 2.02016C19.3975 1.86991 20.897 1.41991 22.7542 1.44116C25.5312 1.47066 27.8252 2.54141 29.3877 4.53816C30.127 5.48291 30.1287 7.65941 29.3925 10.5099C28.642 13.4162 27.2297 16.5394 25.5182 19.0792C25.4417 19.1934 25.3157 19.2549 25.1875 19.2549ZM25.3775 21.8074C24.743 21.8074 24.1742 21.7179 23.8337 21.5139C23.4837 21.3042 23.417 21.0192 23.4082 20.8679C23.3127 19.1904 24.2382 18.8984 24.7102 18.7652C24.6445 18.6657 24.551 18.5487 24.4542 18.4279C24.179 18.0839 23.802 17.6129 23.5115 16.9084C23.466 16.7984 23.3235 16.5427 23.1585 16.2464C22.2637 14.6419 20.402 11.3032 21.598 9.59341C22.1515 8.80216 23.2537 8.49066 24.8777 8.66441C24.4 7.20891 22.125 2.65591 16.7267 2.56741C15.1032 2.54041 13.7717 3.03966 12.7712 4.04991C10.5312 6.31216 10.6122 10.4054 10.6135 10.4464C10.6149 10.4988 10.6059 10.5509 10.5872 10.5998C10.5684 10.6487 10.5402 10.6934 10.5041 10.7314C10.4681 10.7694 10.4249 10.8 10.377 10.8213C10.3292 10.8426 10.2776 10.8543 10.2252 10.8557C10.1729 10.857 10.1208 10.8481 10.0718 10.8293C10.0229 10.8106 9.97821 10.7823 9.94021 10.7463C9.9022 10.7102 9.87168 10.6671 9.85036 10.6192C9.82905 10.5714 9.81737 10.5198 9.81599 10.4674C9.81099 10.2857 9.72749 5.99016 12.2045 3.48841C13.3637 2.31766 14.8897 1.73966 16.74 1.76991C20.1935 1.82666 22.4165 3.58241 23.673 5.04516C25.0427 6.63941 25.7142 8.39791 25.7695 8.98491C25.8107 9.42141 25.4975 9.50866 25.4342 9.52166L25.2902 9.52491C23.6965 9.26966 22.674 9.44691 22.2512 10.0509C21.3415 11.3512 23.1027 14.5094 23.8547 15.8582C24.0467 16.2022 24.1852 16.4509 24.2487 16.6044C24.4957 17.2034 24.818 17.6059 25.0767 17.9294C25.3045 18.2139 25.5017 18.4607 25.5722 18.7502C25.605 18.8077 26.0697 19.4952 28.8275 18.9259C29.5187 18.7834 29.9332 18.9052 30.06 19.2884C30.3092 20.0422 28.9107 20.9214 28.1365 21.2809C27.4427 21.6034 26.3355 21.8074 25.3775 21.8074ZM24.2035 20.8022C24.291 20.8904 24.7287 21.0427 25.6352 21.0037C26.4412 20.9692 27.2912 20.7939 27.8012 20.5572C28.4535 20.2542 28.889 19.9154 29.1145 19.6842L28.9895 19.7072C27.2262 20.0712 25.979 20.0227 25.2825 19.5629C25.2357 19.532 25.1906 19.4985 25.1475 19.4627C25.072 19.4924 25.0022 19.5119 24.9525 19.5259C24.5575 19.6367 24.149 19.7514 24.2035 20.8022ZM12.813 23.0309C12.375 23.0309 11.914 22.9712 11.4432 22.8534C10.9555 22.7314 10.1332 22.3642 10.1457 21.7609C10.16 21.0842 11.1442 20.8812 11.5147 20.8049C12.8532 20.5292 12.9405 20.4187 13.3587 19.8874C13.4807 19.7327 13.6325 19.5399 13.8395 19.3089C14.1467 18.9649 14.4825 18.7907 14.8375 18.7907C15.0847 18.7907 15.2875 18.8744 15.4215 18.9302C15.8485 19.1072 16.2047 19.5352 16.3512 20.0469C16.4835 20.5087 16.4202 20.9532 16.1737 21.2984C15.3645 22.4317 14.2022 23.0309 12.813 23.0309ZM11.0075 21.7952C11.1277 21.8882 11.3687 22.0124 11.637 22.0794C12.0447 22.1814 12.4402 22.2332 12.8132 22.2332C13.9497 22.2332 14.8622 21.7627 15.525 20.8347C15.6632 20.6412 15.6217 20.3954 15.5847 20.2662C15.5072 19.9954 15.3147 19.7492 15.1165 19.6669C15.009 19.6224 14.9197 19.5884 14.8377 19.5884C14.7937 19.5884 14.6597 19.5884 14.4342 19.8407C14.2786 20.0157 14.129 20.1959 13.9857 20.3812C13.4647 21.0427 13.226 21.2672 11.676 21.5864C11.2977 21.6639 11.1037 21.7429 11.0075 21.7952ZM14.0747 19.9552C13.9795 19.955 13.8875 19.9208 13.8153 19.8587C13.7431 19.7966 13.6954 19.7108 13.681 19.6167C13.6711 19.5504 13.6644 19.4838 13.661 19.4169C12.645 19.3979 11.6647 18.9619 10.9205 18.1854C9.97949 17.2037 9.55124 15.8434 9.74574 14.4537C9.95699 12.9444 9.87799 11.6122 9.83549 10.8964C9.82374 10.6974 9.81524 10.5537 9.81574 10.4542C9.81649 10.3279 9.81899 9.99316 10.938 9.42591C11.336 9.22416 12.134 8.87216 13.0057 8.78191C14.45 8.63266 15.402 9.27591 15.687 10.5934C16.4562 14.1504 15.748 15.7237 15.2307 16.8727C15.1345 17.0867 15.0435 17.2887 14.9707 17.4844L14.9065 17.6569C14.6332 18.3897 14.397 19.0227 14.4695 19.4954C14.4775 19.5472 14.4751 19.6 14.4627 19.6509C14.4502 19.7018 14.4278 19.7497 14.3968 19.7919C14.3658 19.8342 14.3268 19.8699 14.282 19.897C14.2372 19.9242 14.1875 19.9422 14.1357 19.9502L14.0747 19.9552ZM10.616 10.5647L10.6315 10.8494C10.6755 11.5929 10.7575 12.9764 10.5355 14.5644C10.3752 15.7107 10.7252 16.8294 11.4962 17.6334C12.1055 18.2689 12.9072 18.6197 13.7312 18.6197H13.7482C13.8405 18.2309 13.9937 17.8204 14.1587 17.3782L14.2225 17.2067C14.3047 16.9857 14.401 16.7717 14.503 16.5452C15.0007 15.4392 15.6205 14.0624 14.9067 10.7622C14.7655 10.1084 14.4227 9.73016 13.8595 9.60541C12.7025 9.34991 10.9782 10.2202 10.616 10.5647ZM13.0235 10.3954C13.0035 10.5364 13.2817 10.9129 13.6447 10.9632C14.007 11.0139 14.317 10.7194 14.3367 10.5784C14.3565 10.4374 14.0785 10.2819 13.7155 10.2314C13.3527 10.1809 13.0427 10.2544 13.0235 10.3954ZM13.728 11.1019L13.6262 11.0949C13.4012 11.0637 13.1737 10.9219 13.018 10.7154C12.9632 10.6429 12.874 10.5024 12.8917 10.3769C12.917 10.1929 13.1415 10.0827 13.4917 10.0827C13.57 10.0827 13.6515 10.0884 13.7335 10.0999C13.925 10.1264 14.1027 10.1817 14.234 10.2549C14.4615 10.3819 14.4782 10.5237 14.468 10.5969C14.44 10.8002 14.1167 11.1019 13.728 11.1019ZM13.1557 10.4189C13.167 10.5059 13.3825 10.7929 13.663 10.8317L13.7282 10.8362C13.9872 10.8362 14.1807 10.6324 14.2035 10.5657C14.1795 10.5202 14.013 10.4072 13.6972 10.3632C13.6293 10.3534 13.5607 10.3485 13.492 10.3484C13.289 10.3484 13.1812 10.3942 13.1557 10.4189ZM24.057 10.1077C24.0767 10.2487 23.7987 10.6252 23.436 10.6757C23.0735 10.7262 22.7632 10.4319 22.7432 10.2909C22.7242 10.1499 23.0022 9.99416 23.3647 9.94391C23.7272 9.89316 24.037 9.96691 24.057 10.1077ZM23.3522 10.7477C23.0032 10.7477 22.702 10.4762 22.6772 10.2999C22.6485 10.0884 22.9967 9.92766 23.3552 9.87791C23.4342 9.86691 23.5125 9.86141 23.5877 9.86141C23.8972 9.86141 24.1022 9.95216 24.1227 10.0987C24.136 10.1934 24.0632 10.3397 23.938 10.4717C23.8552 10.5584 23.6815 10.7087 23.4447 10.7414L23.3522 10.7477ZM23.588 9.99441C23.519 9.99441 23.447 9.99966 23.374 10.0097C23.0137 10.0599 22.7987 10.2044 22.8092 10.2819C22.8212 10.3672 23.0512 10.6149 23.3525 10.6149L23.4267 10.6097C23.6235 10.5824 23.7712 10.4539 23.8417 10.3799C23.9525 10.2637 23.9965 10.1542 23.9912 10.1169C23.9842 10.0674 23.8512 9.99441 23.588 9.99441ZM24.5792 18.2052C24.507 18.2052 24.436 18.1856 24.3741 18.1484C24.3121 18.1113 24.2614 18.0579 24.2274 17.9942C24.1934 17.9304 24.1773 17.8586 24.181 17.7864C24.1847 17.7142 24.2079 17.6444 24.2482 17.5844C25.0977 16.3157 24.9422 15.0219 24.792 13.7707C24.7277 13.2377 24.6617 12.6864 24.6787 12.1574C24.6962 11.6132 24.7655 11.1642 24.8322 10.7299C24.9115 10.2154 24.9865 9.72941 24.9555 9.15241C24.9527 9.10011 24.9602 9.04777 24.9776 8.99837C24.995 8.94897 25.0219 8.90348 25.0569 8.86451C25.0919 8.82553 25.1342 8.79382 25.1815 8.7712C25.2287 8.74858 25.2799 8.73548 25.3322 8.73266C25.3845 8.72983 25.4369 8.73734 25.4863 8.75475C25.5357 8.77215 25.5812 8.79912 25.6201 8.8341C25.6591 8.86908 25.6908 8.9114 25.7134 8.95864C25.7361 9.00588 25.7492 9.05711 25.752 9.10941C25.7875 9.76891 25.7027 10.3189 25.6207 10.8512C25.5575 11.2619 25.492 11.6867 25.4762 12.1829C25.461 12.6514 25.5207 13.1489 25.584 13.6754C25.744 15.0059 25.9252 16.5139 24.9112 18.0282C24.8747 18.0827 24.8253 18.1274 24.7674 18.1582C24.7095 18.1891 24.6449 18.2052 24.5792 18.2052Z" fill="white"/>
</svg>
