<svg width="32" height="32" viewBox="0 0 32 32" fill="none" xmlns="http://www.w3.org/2000/svg">
<path d="M21.714 8.57129H22.857C23.0084 8.57129 23.1537 8.63145 23.2608 8.73853C23.3678 8.84561 23.428 8.99085 23.428 9.14229C23.428 9.29373 23.3678 9.43896 23.2608 9.54605C23.1537 9.65313 23.0084 9.71329 22.857 9.71329H21.714C21.5626 9.71329 21.4173 9.65313 21.3102 9.54605C21.2032 9.43896 21.143 9.29373 21.143 9.14229C21.143 8.99085 21.2032 8.84561 21.3102 8.73853C21.4173 8.63145 21.5626 8.57129 21.714 8.57129Z" fill="#56B3B4"/>
<path d="M4.571 26.8574H10.285C10.4364 26.8574 10.5817 26.9176 10.6888 27.0247C10.7958 27.1317 10.856 27.277 10.856 27.4284C10.856 27.5034 10.8412 27.5777 10.8125 27.6469C10.7838 27.7162 10.7418 27.7792 10.6888 27.8322C10.6357 27.8852 10.5728 27.9273 10.5035 27.956C10.4342 27.9847 10.36 27.9994 10.285 27.9994H4.571C4.41974 27.9994 4.27465 27.9394 4.1676 27.8325C4.06054 27.7257 4.00027 27.5807 4 27.4294C3.99987 27.3544 4.01454 27.28 4.04318 27.2106C4.07182 27.1412 4.11385 27.0781 4.16689 27.025C4.21992 26.9719 4.28292 26.9297 4.35226 26.901C4.4216 26.8722 4.49593 26.8574 4.571 26.8574Z" fill="#EA5E5E"/>
<path d="M18.286 17.7139H21.715C21.8664 17.7139 22.0117 17.774 22.1188 17.8811C22.2258 17.9882 22.286 18.1334 22.286 18.2849C22.286 18.4363 22.2258 18.5815 22.1188 18.6886C22.0117 18.7957 21.8664 18.8559 21.715 18.8559H18.286C18.1346 18.8559 17.9893 18.7957 17.8822 18.6886C17.7752 18.5815 17.715 18.4363 17.715 18.2849C17.715 18.1334 17.7752 17.9882 17.8822 17.8811C17.9893 17.774 18.1346 17.7139 18.286 17.7139Z" fill="#BF85BF"/>
<path d="M11.429 17.7139H16C16.1514 17.7139 16.2967 17.774 16.4038 17.8811C16.5108 17.9882 16.571 18.1334 16.571 18.2849C16.571 18.4363 16.5108 18.5815 16.4038 18.6886C16.2967 18.7957 16.1514 18.8559 16 18.8559H11.429C11.2776 18.8559 11.1323 18.7957 11.0252 18.6886C10.9182 18.5815 10.858 18.4363 10.858 18.2849C10.858 18.1334 10.9182 17.9882 11.0252 17.8811C11.1323 17.774 11.2776 17.7139 11.429 17.7139Z" fill="#EA5E5E"/>
<path d="M4.571 17.7139H9.143C9.29444 17.7139 9.43968 17.774 9.54676 17.8811C9.65384 17.9882 9.714 18.1334 9.714 18.2849C9.714 18.4363 9.65384 18.5815 9.54676 18.6886C9.43968 18.7957 9.29444 18.8559 9.143 18.8559H4.571C4.41974 18.8559 4.27465 18.7958 4.1676 18.689C4.06054 18.5821 4.00027 18.4371 4 18.2859C3.99987 18.2108 4.01454 18.1364 4.04318 18.067C4.07182 17.9977 4.11385 17.9346 4.16689 17.8815C4.21992 17.8283 4.28292 17.7862 4.35226 17.7574C4.4216 17.7287 4.49593 17.7139 4.571 17.7139Z" fill="#56B3B4"/>
<path d="M4.571 22.2856H10.285C10.4364 22.2856 10.5817 22.3457 10.6888 22.4528C10.7958 22.5599 10.856 22.7051 10.856 22.8566C10.856 23.008 10.7958 23.1533 10.6888 23.2603C10.5817 23.3674 10.4364 23.4276 10.285 23.4276H4.571C4.41956 23.4276 4.27433 23.3674 4.16724 23.2603C4.06016 23.1533 4 23.008 4 22.8566C4 22.7051 4.06016 22.5599 4.16724 22.4528C4.27433 22.3457 4.41956 22.2856 4.571 22.2856ZM4.571 13.1426H10.285C10.4364 13.1426 10.5817 13.2027 10.6888 13.3098C10.7958 13.4169 10.856 13.5621 10.856 13.7136C10.856 13.865 10.7958 14.0103 10.6888 14.1173C10.5817 14.2244 10.4364 14.2846 10.285 14.2846H4.571C4.41956 14.2846 4.27433 14.2244 4.16724 14.1173C4.06016 14.0103 4 13.865 4 13.7136C4 13.5621 4.06016 13.4169 4.16724 13.3098C4.27433 13.2027 4.41956 13.1426 4.571 13.1426Z" fill="#BF85BF"/>
<path d="M10.286 6.28613H21.714C21.8654 6.28613 22.0107 6.34629 22.1178 6.45337C22.2248 6.56046 22.285 6.70569 22.285 6.85713C22.285 7.00857 22.2248 7.15381 22.1178 7.26089C22.0107 7.36797 21.8654 7.42813 21.714 7.42813H10.286C10.1346 7.42813 9.98932 7.36797 9.88224 7.26089C9.77516 7.15381 9.715 7.00857 9.715 6.85713C9.715 6.70569 9.77516 6.56046 9.88224 6.45337C9.98932 6.34629 10.1346 6.28613 10.286 6.28613Z" fill="#F7BA3E"/>
<path d="M4.571 6.28613H8C8.15144 6.28613 8.29668 6.34629 8.40376 6.45337C8.51084 6.56046 8.571 6.70569 8.571 6.85713C8.57113 6.9322 8.55646 7.00656 8.52782 7.07595C8.49919 7.14534 8.45715 7.20841 8.40411 7.26154C8.35108 7.31467 8.28809 7.35681 8.21874 7.38557C8.1494 7.41433 8.07507 7.42913 8 7.42913H4.571C4.49593 7.42913 4.4216 7.41433 4.35226 7.38557C4.28292 7.35681 4.21992 7.31467 4.16689 7.26154C4.11385 7.20841 4.07182 7.14534 4.04318 7.07595C4.01454 7.00656 3.99987 6.9322 4 6.85713C4 6.70569 4.06016 6.56046 4.16724 6.45337C4.27433 6.34629 4.41956 6.28613 4.571 6.28613Z" fill="#EA5E5E"/>
<path d="M9.14301 24.5713H10.286C10.4374 24.5713 10.5827 24.6314 10.6898 24.7385C10.7968 24.8456 10.857 24.9909 10.857 25.1423C10.857 25.2937 10.7968 25.439 10.6898 25.546C10.5827 25.6531 10.4374 25.7133 10.286 25.7133H9.14301C8.99157 25.7133 8.84633 25.6531 8.73925 25.546C8.63217 25.439 8.57201 25.2937 8.57201 25.1423C8.57201 24.9909 8.63217 24.8456 8.73925 24.7385C8.84633 24.6314 8.99157 24.5713 9.14301 24.5713Z" fill="#F7BA3E"/>
<path d="M9.143 10.8574H10.286C10.4374 10.8574 10.5827 10.9176 10.6898 11.0247C10.7968 11.1317 10.857 11.277 10.857 11.4284C10.857 11.5799 10.7968 11.7251 10.6898 11.8322C10.5827 11.9393 10.4374 11.9994 10.286 11.9994H9.143C8.99156 11.9994 8.84633 11.9393 8.73924 11.8322C8.63216 11.7251 8.572 11.5799 8.572 11.4284C8.572 11.277 8.63216 11.1317 8.73924 11.0247C8.84633 10.9176 8.99156 10.8574 9.143 10.8574ZM4.571 24.5714H6.857C7.00844 24.5714 7.15368 24.6316 7.26076 24.7387C7.36784 24.8457 7.428 24.991 7.428 25.1424C7.428 25.2939 7.36784 25.4391 7.26076 25.5462C7.15368 25.6533 7.00844 25.7134 6.857 25.7134H4.571C4.41974 25.7134 4.27465 25.6534 4.1676 25.5465C4.06054 25.4397 4.00027 25.2947 4 25.1434C3.99987 25.0684 4.01454 24.994 4.04318 24.9246C4.07182 24.8552 4.11385 24.7921 4.16689 24.739C4.21992 24.6859 4.28292 24.6437 4.35226 24.615C4.4216 24.5862 4.49593 24.5714 4.571 24.5714Z" fill="#56B3B4"/>
<path d="M4.571 10.8574H6.857C7.00844 10.8574 7.15368 10.9176 7.26076 11.0247C7.36784 11.1317 7.428 11.277 7.428 11.4284C7.42813 11.5035 7.41346 11.5778 7.38482 11.6472C7.35619 11.7166 7.31415 11.7797 7.26111 11.8328C7.20808 11.886 7.14509 11.9281 7.07574 11.9569C7.0064 11.9856 6.93207 12.0004 6.857 12.0004H4.571C4.41956 12.0004 4.27433 11.9403 4.16724 11.8332C4.06016 11.7261 4 11.5809 4 11.4294C3.99987 11.3544 4.01454 11.28 4.04318 11.2106C4.07182 11.1412 4.11385 11.0781 4.16689 11.025C4.21992 10.9719 4.28292 10.9297 4.35226 10.901C4.4216 10.8722 4.49593 10.8574 4.571 10.8574Z" fill="#F7BA3E"/>
<path opacity="0.5" d="M19.429 24.5713H20.572C20.7234 24.5713 20.8687 24.6314 20.9758 24.7385C21.0828 24.8456 21.143 24.9909 21.143 25.1423C21.143 25.2937 21.0828 25.439 20.9758 25.546C20.8687 25.6531 20.7234 25.7133 20.572 25.7133H19.429C19.2776 25.7133 19.1323 25.6531 19.0252 25.546C18.9182 25.439 18.858 25.2937 18.858 25.1423C18.858 24.9909 18.9182 24.8456 19.0252 24.7385C19.1323 24.6314 19.2776 24.5713 19.429 24.5713ZM12.571 24.5713H17.142C17.2934 24.5713 17.4387 24.6314 17.5458 24.7385C17.6528 24.8456 17.713 24.9909 17.713 25.1423C17.713 25.2937 17.6528 25.439 17.5458 25.546C17.4387 25.6531 17.2934 25.7133 17.142 25.7133H12.571C12.4197 25.7133 12.2747 25.6533 12.1676 25.5464C12.0605 25.4395 12.0003 25.2946 12 25.1433C11.9999 25.0682 12.0145 24.9939 12.0432 24.9245C12.0718 24.8551 12.1139 24.792 12.1669 24.7389C12.2199 24.6858 12.2829 24.6436 12.3523 24.6149C12.4216 24.5861 12.4959 24.5713 12.571 24.5713ZM22.857 24.5713H27.428C27.5794 24.5713 27.7247 24.6314 27.8318 24.7385C27.9388 24.8456 27.999 24.9909 27.999 25.1423C27.999 25.2937 27.9388 25.439 27.8318 25.546C27.7247 25.6531 27.5794 25.7133 27.428 25.7133H22.857C22.7056 25.7133 22.5603 25.6531 22.4532 25.546C22.3462 25.439 22.286 25.2937 22.286 25.1423C22.286 24.9909 22.3462 24.8456 22.4532 24.7385C22.5603 24.6314 22.7056 24.5713 22.857 24.5713Z" fill="#4D616E"/>
<path d="M13.714 15.4287H22.857C23.0084 15.4287 23.1537 15.4889 23.2608 15.596C23.3678 15.703 23.428 15.8483 23.428 15.9997C23.428 16.1511 23.3678 16.2964 23.2608 16.4035C23.1537 16.5106 23.0084 16.5707 22.857 16.5707H13.714C13.5626 16.5707 13.4173 16.5106 13.3102 16.4035C13.2032 16.2964 13.143 16.1511 13.143 15.9997C13.143 15.8483 13.2032 15.703 13.3102 15.596C13.4173 15.4889 13.5626 15.4287 13.714 15.4287Z" fill="#56B3B4"/>
<path d="M8 15.4287H11.429C11.5804 15.4287 11.7257 15.4889 11.8328 15.596C11.9398 15.703 12 15.8483 12 15.9997C12 16.1511 11.9398 16.2964 11.8328 16.4035C11.7257 16.5106 11.5804 16.5707 11.429 16.5707H8C7.84856 16.5707 7.70333 16.5106 7.59624 16.4035C7.48916 16.2964 7.429 16.1511 7.429 15.9997C7.429 15.8483 7.48916 15.703 7.59624 15.596C7.70333 15.4889 7.84856 15.4287 8 15.4287Z" fill="#F7BA3E"/>
<path d="M4.571 15.4287H5.714C5.78907 15.4286 5.86343 15.4433 5.93282 15.4719C6.00221 15.5005 6.06528 15.5426 6.1184 15.5956C6.17153 15.6486 6.21368 15.7116 6.24244 15.781C6.2712 15.8503 6.286 15.9246 6.286 15.9997C6.286 16.1512 6.22584 16.2964 6.11876 16.4035C6.01167 16.5106 5.86644 16.5707 5.715 16.5707H4.571C4.41956 16.5707 4.27433 16.5106 4.16724 16.4035C4.06016 16.2964 4 16.1512 4 15.9997C4 15.8483 4.06016 15.703 4.16724 15.596C4.27433 15.4889 4.41956 15.4287 4.571 15.4287Z" fill="#EA5E5E"/>
<path d="M14.857 8.57129H19.428C19.5031 8.57116 19.5776 8.58586 19.647 8.61456C19.7165 8.64326 19.7796 8.68539 19.8328 8.73853C19.8859 8.79167 19.928 8.85478 19.9567 8.92424C19.9854 8.9937 20.0001 9.06814 20 9.14329C20 9.29473 19.9398 9.43996 19.8328 9.54705C19.7257 9.65413 19.5804 9.71429 19.429 9.71429H14.857C14.7056 9.71429 14.5603 9.65413 14.4532 9.54705C14.3462 9.43996 14.286 9.29473 14.286 9.14329C14.2859 9.06822 14.3005 8.99386 14.3292 8.92447C14.3578 8.85508 14.3998 8.79201 14.4529 8.73888C14.5059 8.68576 14.5689 8.64361 14.6383 8.61485C14.7076 8.58609 14.7819 8.57129 14.857 8.57129Z" fill="#BF85BF"/>
<path d="M4.571 8.57129H12.571C12.7224 8.57129 12.8677 8.63145 12.9748 8.73853C13.0818 8.84561 13.142 8.99085 13.142 9.14229C13.142 9.29373 13.0818 9.43896 12.9748 9.54605C12.8677 9.65313 12.7224 9.71329 12.571 9.71329H4.571C4.41974 9.71329 4.27465 9.65327 4.1676 9.5464C4.06054 9.43953 4.00027 9.29455 4 9.14329C3.99987 9.06822 4.01454 8.99386 4.04318 8.92447C4.07182 8.85508 4.11385 8.79201 4.16689 8.73888C4.21992 8.68576 4.28292 8.64361 4.35226 8.61485C4.4216 8.58609 4.49593 8.57129 4.571 8.57129Z" fill="#56B3B4"/>
<path d="M8 20H18.286C18.361 20 18.4352 20.0148 18.5045 20.0435C18.5738 20.0722 18.6367 20.1142 18.6898 20.1672C18.7428 20.2203 18.7848 20.2832 18.8135 20.3525C18.8422 20.4218 18.857 20.496 18.857 20.571C18.857 20.7224 18.7968 20.8677 18.6898 20.9748C18.5827 21.0818 18.4374 21.142 18.286 21.142H8C7.84856 21.142 7.70333 21.0818 7.59624 20.9748C7.48916 20.8677 7.429 20.7224 7.429 20.571C7.429 20.496 7.44377 20.4218 7.47247 20.3525C7.50116 20.2832 7.54322 20.2203 7.59624 20.1672C7.64927 20.1142 7.71221 20.0722 7.78149 20.0435C7.85077 20.0148 7.92502 20 8 20Z" fill="#F7BA3E"/>
<path d="M4.571 20H5.714C5.78899 20 5.86324 20.0148 5.93251 20.0435C6.00179 20.0722 6.06474 20.1142 6.11776 20.1672C6.17078 20.2203 6.21284 20.2832 6.24154 20.3525C6.27023 20.4218 6.285 20.496 6.285 20.571C6.285 20.7224 6.22484 20.8677 6.11776 20.9748C6.01067 21.0818 5.86544 21.142 5.714 21.142H4.571C4.41956 21.142 4.27433 21.0818 4.16724 20.9748C4.06016 20.8677 4 20.7224 4 20.571C4 20.496 4.01477 20.4218 4.04346 20.3525C4.07216 20.2832 4.11422 20.2203 4.16724 20.1672C4.22026 20.1142 4.28321 20.0722 4.35249 20.0435C4.42176 20.0148 4.49602 20 4.571 20Z" fill="#BF85BF"/>
<path d="M18.286 10.8574H24C24.1514 10.8574 24.2967 10.9176 24.4038 11.0247C24.5108 11.1317 24.571 11.277 24.571 11.4284C24.5711 11.5035 24.5565 11.5778 24.5278 11.6472C24.4992 11.7166 24.4571 11.7797 24.4041 11.8328C24.3511 11.886 24.2881 11.9281 24.2187 11.9569C24.1494 11.9856 24.0751 12.0004 24 12.0004H18.286C18.1346 12.0004 17.9893 11.9403 17.8822 11.8332C17.7752 11.7261 17.715 11.5809 17.715 11.4294C17.7149 11.3544 17.7295 11.28 17.7582 11.2106C17.7868 11.1412 17.8288 11.0781 17.8819 11.025C17.9349 10.9719 17.9979 10.9297 18.0673 10.901C18.1366 10.8722 18.2109 10.8574 18.286 10.8574Z" fill="#EA5E5E"/>
<path d="M18.286 13.1426H24C24.1514 13.1426 24.2967 13.2027 24.4038 13.3098C24.5108 13.4169 24.571 13.5621 24.571 13.7136C24.571 13.865 24.5108 14.0103 24.4038 14.1173C24.2967 14.2244 24.1514 14.2846 24 14.2846H18.286C18.1346 14.2846 17.9893 14.2244 17.8822 14.1173C17.7752 14.0103 17.715 13.865 17.715 13.7136C17.715 13.5621 17.7752 13.4169 17.8822 13.3098C17.9893 13.2027 18.1346 13.1426 18.286 13.1426Z" fill="#F7BA3E"/>
<path d="M4.571 4H18.286C18.4374 4 18.5827 4.06016 18.6898 4.16724C18.7968 4.27433 18.857 4.41956 18.857 4.571C18.857 4.72244 18.7968 4.86767 18.6898 4.97476C18.5827 5.08184 18.4374 5.142 18.286 5.142H4.571C4.41956 5.142 4.27433 5.08184 4.16724 4.97476C4.06016 4.86767 4 4.72244 4 4.571C4 4.41956 4.06016 4.27433 4.16724 4.16724C4.27433 4.06016 4.41956 4 4.571 4Z" fill="#56B3B4"/>
<path opacity="0.5" d="M20.571 4H27.428C27.5031 3.99987 27.5774 4.01454 27.6468 4.04318C27.7162 4.07182 27.7793 4.11385 27.8324 4.16689C27.8855 4.21992 27.9277 4.28292 27.9564 4.35226C27.9852 4.4216 28 4.49593 28 4.571C28 4.72244 27.9398 4.86768 27.8328 4.97476C27.7257 5.08184 27.5804 5.142 27.429 5.142H20.571C20.4196 5.142 20.2743 5.08184 20.1672 4.97476C20.0602 4.86768 20 4.72244 20 4.571C20 4.49602 20.0148 4.42177 20.0435 4.35249C20.0722 4.28321 20.1142 4.22027 20.1672 4.16724C20.2203 4.11422 20.2832 4.07216 20.3525 4.04347C20.4218 4.01477 20.496 4 20.571 4ZM20.571 20H22.857C22.932 20 23.0062 20.0148 23.0755 20.0435C23.1448 20.0722 23.2077 20.1142 23.2608 20.1672C23.3138 20.2203 23.3558 20.2832 23.3845 20.3525C23.4132 20.4218 23.428 20.496 23.428 20.571C23.428 20.7224 23.3678 20.8677 23.2608 20.9748C23.1537 21.0818 23.0084 21.142 22.857 21.142H20.571C20.496 21.142 20.4218 21.1272 20.3525 21.0985C20.2832 21.0698 20.2203 21.0278 20.1672 20.9748C20.1142 20.9217 20.0722 20.8588 20.0435 20.7895C20.0148 20.7202 20 20.646 20 20.571C20 20.496 20.0148 20.4218 20.0435 20.3525C20.0722 20.2832 20.1142 20.2203 20.1672 20.1672C20.2203 20.1142 20.2832 20.0722 20.3525 20.0435C20.4218 20.0148 20.496 20 20.571 20ZM25.143 20H27.429C27.504 20 27.5782 20.0148 27.6475 20.0435C27.7168 20.0722 27.7797 20.1142 27.8328 20.1672C27.8858 20.2203 27.9278 20.2832 27.9565 20.3525C27.9852 20.4218 28 20.496 28 20.571C28 20.646 27.9852 20.7202 27.9565 20.7895C27.9278 20.8588 27.8858 20.9217 27.8328 20.9748C27.7797 21.0278 27.7168 21.0698 27.6475 21.0985C27.5782 21.1272 27.504 21.142 27.429 21.142H25.143C24.9916 21.142 24.8463 21.0818 24.7392 20.9748C24.6322 20.8677 24.572 20.7224 24.572 20.571C24.572 20.496 24.5868 20.4218 24.6155 20.3525C24.6442 20.2832 24.6862 20.2203 24.7392 20.1672C24.7923 20.1142 24.8552 20.0722 24.9245 20.0435C24.9938 20.0148 25.068 20 25.143 20ZM24 17.714H27.429C27.5804 17.714 27.7257 17.7742 27.8328 17.8812C27.9398 17.9883 28 18.1336 28 18.285C28 18.4364 27.9398 18.5817 27.8328 18.6888C27.7257 18.7958 27.5804 18.856 27.429 18.856H24C23.8486 18.856 23.7033 18.7958 23.5962 18.6888C23.4892 18.5817 23.429 18.4364 23.429 18.285C23.429 18.1336 23.4892 17.9883 23.5962 17.8812C23.7033 17.7742 23.8486 17.714 24 17.714ZM24 6.286H27.429C27.5804 6.286 27.7257 6.34616 27.8328 6.45324C27.9398 6.56033 28 6.70556 28 6.857C28 7.00844 27.9398 7.15368 27.8328 7.26076C27.7257 7.36784 27.5804 7.428 27.429 7.428H24C23.8486 7.428 23.7033 7.36784 23.5962 7.26076C23.4892 7.15368 23.429 7.00844 23.429 6.857C23.429 6.70556 23.4892 6.56033 23.5962 6.45324C23.7033 6.34616 23.8486 6.286 24 6.286ZM25.143 15.429H27.429C27.5804 15.429 27.7257 15.4892 27.8328 15.5962C27.9398 15.7033 28 15.8486 28 16C28 16.1514 27.9398 16.2967 27.8328 16.4038C27.7257 16.5108 27.5804 16.571 27.429 16.571H25.143C25.0679 16.5711 24.9936 16.5565 24.9242 16.5278C24.8548 16.4992 24.7917 16.4571 24.7386 16.4041C24.6855 16.3511 24.6433 16.2881 24.6146 16.2187C24.5858 16.1494 24.571 16.0751 24.571 16C24.571 15.9249 24.5858 15.8506 24.6146 15.7813C24.6433 15.7119 24.6855 15.6489 24.7386 15.5959C24.7917 15.5429 24.8548 15.5008 24.9242 15.4722C24.9936 15.4435 25.0679 15.4289 25.143 15.429ZM25.143 8.571H27.429C27.5041 8.571 27.5784 8.5858 27.6477 8.61456C27.7171 8.64332 27.7801 8.68547 27.8331 8.7386C27.8861 8.79172 27.9282 8.85479 27.9568 8.92418C27.9855 8.99357 28.0001 9.06793 28 9.143C28 9.21799 27.9852 9.29224 27.9565 9.36151C27.9278 9.43079 27.8858 9.49374 27.8328 9.54676C27.7797 9.59978 27.7168 9.64184 27.6475 9.67054C27.5782 9.69923 27.504 9.714 27.429 9.714H25.143C24.9916 9.714 24.8463 9.65384 24.7392 9.54676C24.6322 9.43968 24.572 9.29444 24.572 9.143C24.5719 9.06793 24.5865 8.99357 24.6152 8.92418C24.6438 8.85479 24.6859 8.79172 24.7389 8.7386C24.7919 8.68547 24.8549 8.64332 24.9243 8.61456C24.9936 8.5858 25.0679 8.571 25.143 8.571ZM26.286 10.857H27.429C27.504 10.857 27.5782 10.8718 27.6475 10.9005C27.7168 10.9292 27.7797 10.9712 27.8328 11.0242C27.8858 11.0773 27.9278 11.1402 27.9565 11.2095C27.9852 11.2788 28 11.353 28 11.428C28 11.503 27.9852 11.5772 27.9565 11.6465C27.9278 11.7158 27.8858 11.7787 27.8328 11.8318C27.7797 11.8848 27.7168 11.9268 27.6475 11.9555C27.5782 11.9842 27.504 11.999 27.429 11.999H26.286C26.1346 11.999 25.9893 11.9388 25.8822 11.8318C25.7752 11.7247 25.715 11.5794 25.715 11.428C25.715 11.2766 25.7752 11.1313 25.8822 11.0242C25.9893 10.9172 26.1346 10.857 26.286 10.857ZM26.286 13.143H27.429C27.504 13.143 27.5782 13.1578 27.6475 13.1865C27.7168 13.2152 27.7797 13.2572 27.8328 13.3102C27.8858 13.3633 27.9278 13.4262 27.9565 13.4955C27.9852 13.5648 28 13.639 28 13.714C28 13.789 27.9852 13.8632 27.9565 13.9325C27.9278 14.0018 27.8858 14.0647 27.8328 14.1178C27.7797 14.1708 27.7168 14.2128 27.6475 14.2415C27.5782 14.2702 27.504 14.285 27.429 14.285H26.286C26.1346 14.285 25.9893 14.2248 25.8822 14.1178C25.7752 14.0107 25.715 13.8654 25.715 13.714C25.715 13.5626 25.7752 13.4173 25.8822 13.3102C25.9893 13.2032 26.1346 13.143 26.286 13.143ZM17.143 22.286H27.429C27.504 22.286 27.5782 22.3008 27.6475 22.3295C27.7168 22.3582 27.7797 22.4002 27.8328 22.4532C27.8858 22.5063 27.9278 22.5692 27.9565 22.6385C27.9852 22.7078 28 22.782 28 22.857C28 22.932 27.9852 23.0062 27.9565 23.0755C27.9278 23.1448 27.8858 23.2077 27.8328 23.2608C27.7797 23.3138 27.7168 23.3558 27.6475 23.3845C27.5782 23.4132 27.504 23.428 27.429 23.428H17.143C16.9916 23.428 16.8463 23.3678 16.7392 23.2608C16.6322 23.1537 16.572 23.0084 16.572 22.857C16.572 22.7056 16.6322 22.5603 16.7392 22.4532C16.8463 22.3462 16.9916 22.286 17.143 22.286ZM12.571 22.286H14.857C15.0084 22.286 15.1537 22.3462 15.2608 22.4532C15.3678 22.5603 15.428 22.7056 15.428 22.857C15.428 23.0084 15.3678 23.1537 15.2608 23.2608C15.1537 23.3678 15.0084 23.428 14.857 23.428H12.571C12.4196 23.428 12.2743 23.3678 12.1672 23.2608C12.0602 23.1537 12 23.0084 12 22.857C12 22.7056 12.0602 22.5603 12.1672 22.4532C12.2743 22.3462 12.4196 22.286 12.571 22.286ZM21.714 26.857H27.428C27.5794 26.857 27.7247 26.9172 27.8318 27.0242C27.9388 27.1313 27.999 27.2766 27.999 27.428C27.999 27.503 27.9842 27.5772 27.9555 27.6465C27.9268 27.7158 27.8848 27.7787 27.8318 27.8318C27.7787 27.8848 27.7158 27.9268 27.6465 27.9555C27.5772 27.9842 27.503 27.999 27.428 27.999H21.714C21.639 27.999 21.5648 27.9842 21.4955 27.9555C21.4262 27.9268 21.3633 27.8848 21.3102 27.8318C21.2572 27.7787 21.2152 27.7158 21.1865 27.6465C21.1578 27.5772 21.143 27.503 21.143 27.428C21.143 27.2766 21.2032 27.1313 21.3102 27.0242C21.4173 26.9172 21.5626 26.857 21.714 26.857ZM12.571 26.857H19.428C19.5794 26.857 19.7247 26.9172 19.8318 27.0242C19.9388 27.1313 19.999 27.2766 19.999 27.428C19.999 27.503 19.9842 27.5772 19.9555 27.6465C19.9268 27.7158 19.8848 27.7787 19.8318 27.8318C19.7787 27.8848 19.7158 27.9268 19.6465 27.9555C19.5772 27.9842 19.503 27.999 19.428 27.999H12.571C12.4197 27.999 12.2747 27.939 12.1676 27.8321C12.0605 27.7252 12.0003 27.5803 12 27.429C11.9999 27.3539 12.0145 27.2796 12.0432 27.2102C12.0718 27.1408 12.1139 27.0777 12.1669 27.0246C12.2199 26.9715 12.2829 26.9293 12.3523 26.9006C12.4216 26.8718 12.4959 26.857 12.571 26.857ZM12.571 10.857H16C16.1514 10.857 16.2967 10.9172 16.4038 11.0242C16.5108 11.1313 16.571 11.2766 16.571 11.428C16.5711 11.5031 16.5565 11.5774 16.5278 11.6468C16.4992 11.7162 16.4571 11.7793 16.4041 11.8324C16.3511 11.8855 16.2881 11.9277 16.2187 11.9564C16.1494 11.9852 16.0751 12 16 12H12.571C12.4196 12 12.2743 11.9398 12.1672 11.8328C12.0602 11.7257 12 11.5804 12 11.429C11.9999 11.3539 12.0145 11.2796 12.0432 11.2102C12.0718 11.1408 12.1139 11.0777 12.1669 11.0246C12.2199 10.9715 12.2829 10.9293 12.3523 10.9006C12.4216 10.8718 12.4959 10.857 12.571 10.857ZM12.571 13.143H16C16.1514 13.143 16.2967 13.2032 16.4038 13.3102C16.5108 13.4173 16.571 13.5626 16.571 13.714C16.571 13.8654 16.5108 14.0107 16.4038 14.1178C16.2967 14.2248 16.1514 14.285 16 14.285H12.571C12.4196 14.285 12.2743 14.2248 12.1672 14.1178C12.0602 14.0107 12 13.8654 12 13.714C12 13.5626 12.0602 13.4173 12.1672 13.3102C12.2743 13.2032 12.4196 13.143 12.571 13.143Z" fill="#4D616E"/>
</svg>
