<svg width="32" height="32" viewBox="0 0 32 32" fill="none" xmlns="http://www.w3.org/2000/svg">
<g clip-path="url(#clip0_5708_2793)">
<path d="M16.6142 0.00342541C16.3259 -0.0156061 16.038 0.0449308 15.7817 0.178427C15.5255 0.311924 15.3109 0.513249 15.1612 0.760425L3.19375 20.2784C3.03782 20.5326 2.95629 20.8254 2.95841 21.1236C2.96053 21.4218 3.04622 21.7135 3.20575 21.9654L9.09775 31.2619C9.28463 31.5549 9.562 31.7789 9.88776 31.9C10.2135 32.0211 10.5699 32.0325 10.9027 31.9327L27.9057 26.8309C28.1241 26.7656 28.3259 26.6541 28.4975 26.504C28.6691 26.3539 28.8064 26.1687 28.9003 25.961C28.9942 25.7533 29.0423 25.5278 29.0415 25.2998C29.0407 25.0719 28.991 24.8468 28.8957 24.6397L17.9657 0.927175C17.8469 0.664197 17.658 0.438948 17.4198 0.276037C17.1816 0.113126 16.9032 0.0188207 16.615 0.00342541H16.6142ZM17.063 5.99093C17.1901 5.97573 17.3187 6.00251 17.4292 6.06719C17.5397 6.13187 17.626 6.23089 17.675 6.34918L25.215 23.7952C25.2486 23.8727 25.2654 23.9565 25.2642 24.041C25.263 24.1255 25.2439 24.2087 25.2082 24.2853C25.1725 24.3619 25.1209 24.43 25.0569 24.4852C24.993 24.5404 24.918 24.5813 24.837 24.6054L13.088 28.1114C12.9893 28.1407 12.8846 28.1441 12.7843 28.121C12.6839 28.098 12.5912 28.0494 12.5151 27.98C12.439 27.9105 12.3822 27.8226 12.3501 27.7248C12.318 27.6269 12.3118 27.5224 12.332 27.4214L16.5395 6.46843C16.5631 6.34257 16.6271 6.22784 16.7218 6.14166C16.8165 6.05548 16.9367 6.00256 17.0642 5.99093H17.063Z" fill="#F5F5F9"/>
</g>
<defs>
<clipPath id="clip0_5708_2793">
<rect width="32" height="32" fill="white"/>
</clipPath>
</defs>
</svg>
