<svg width="32" height="32" viewBox="0 0 32 32" fill="none" xmlns="http://www.w3.org/2000/svg">
<g clip-path="url(#clip0_5708_2218)">
<path d="M15.36 32C12.6442 32 10.0396 30.9211 8.11922 29.0008C6.19885 27.0804 5.12 24.4758 5.12 21.76C5.12 19.0442 6.19885 16.4396 8.11922 14.5192C10.0396 12.5989 12.6442 11.52 15.36 11.52V32ZM15.36 0V10.24H5.12V0H15.36ZM21.76 10.24C20.4021 10.24 19.0998 9.70057 18.1396 8.74039C17.1794 7.7802 16.64 6.47791 16.64 5.12C16.64 3.76209 17.1794 2.4598 18.1396 1.49961C19.0998 0.539427 20.4021 0 21.76 0C23.1179 0 24.4202 0.539427 25.3804 1.49961C26.3406 2.4598 26.88 3.76209 26.88 5.12C26.88 6.47791 26.3406 7.7802 25.3804 8.74039C24.4202 9.70057 23.1179 10.24 21.76 10.24Z" fill="#F5F5F9"/>
</g>
<defs>
<clipPath id="clip0_5708_2218">
<rect width="32" height="32" fill="white"/>
</clipPath>
</defs>
</svg>
