<svg width="32" height="32" viewBox="0 0 32 32" fill="none" xmlns="http://www.w3.org/2000/svg">
<g clip-path="url(#clip0_5708_2211)">
<path d="M24.76 12.5788C23.8485 12.2918 23.378 12.3885 22.4223 12.2838C20.9448 12.1225 20.356 11.544 20.1063 10.0555C19.9665 9.22453 20.1315 8.00778 19.7747 7.25453C19.0925 5.81803 17.496 5.17378 15.8922 5.54153C14.538 5.85253 13.4112 7.20803 13.3487 8.59953C13.2775 10.1883 14.1812 11.544 15.733 12.012C16.4705 12.2345 17.2537 12.3465 18.0237 12.4033C19.436 12.5065 19.5445 13.2928 19.9262 13.94C20.1673 14.348 20.4005 14.75 20.4005 15.9668C20.4005 17.1835 20.1658 17.5853 19.9265 17.9933C19.5445 18.639 19.0732 19.062 17.661 19.1665C16.891 19.2235 16.106 19.3355 15.3705 19.5583C13.8185 20.0275 12.9147 21.3815 12.986 22.9705C13.0485 24.362 14.1752 25.7175 15.5295 26.0285C17.1332 26.3975 18.7298 25.752 19.412 24.3155C19.7703 23.5623 19.9665 22.7088 20.1063 21.878C20.3575 20.3893 20.9463 19.8108 22.4223 19.6493C23.378 19.5448 24.3673 19.6493 25.263 19.1398C26.2093 18.4473 27.055 17.4073 27.055 15.9668C27.055 14.5258 26.1438 13.0153 24.76 12.5788Z" fill="#F44250"/>
<path d="M9.6 19.3434C7.7375 19.3434 6.218 17.8189 6.218 15.9497C6.218 14.0807 7.73725 12.5562 9.59975 12.5562C11.4622 12.5562 12.9817 14.0807 12.9817 15.9497C12.9817 17.8172 11.461 19.3434 9.59975 19.3434H9.6ZM3.37 26.2402C1.51 26.2357 -0.00449953 24.7052 4.65428e-07 22.8344C0.00450047 20.9669 1.52975 19.4469 3.39375 19.4529C5.25475 19.4574 6.7695 20.9879 6.76375 22.8584C6.75925 24.7244 5.23375 26.2447 3.37 26.2402ZM28.498 26.2402C26.6325 26.2504 25.1015 24.7364 25.0907 22.8719C25.0805 20.9999 26.5893 19.4634 28.4473 19.4529C30.3127 19.4424 31.844 20.9564 31.8545 22.8209C31.8647 24.6914 30.356 26.2297 28.498 26.2402Z" fill="#121212"/>
</g>
<defs>
<clipPath id="clip0_5708_2211">
<rect width="32" height="32" fill="white"/>
</clipPath>
</defs>
</svg>
