<svg width="32" height="32" viewBox="0 0 32 32" fill="none" xmlns="http://www.w3.org/2000/svg">
<g clip-path="url(#clip0_5708_2186)">
<path d="M22.1725 22.0276C19.9225 26.6276 15.9825 29.7226 10.77 30.7401C9.97078 30.9359 9.15033 31.0316 8.3275 31.0251C5.3275 31.0251 2.5775 29.7751 1.2425 27.7276C-0.550001 25.0001 -1.16 19.2176 4.75 14.9401C4.87 15.5926 5.115 16.4876 5.2775 17.0176C4.11733 17.8795 3.16769 18.9932 2.5 20.2751C1.4 22.4351 1.5225 24.5926 2.825 26.5876C3.725 27.9326 5.15 28.7501 6.9825 29.0001C9.27134 29.2898 11.5933 28.8525 13.62 27.7501C16.7975 26.0801 18.915 24.0851 20.3 21.3576C19.9084 20.9528 19.6766 20.42 19.6475 19.8576C19.6266 19.254 19.8459 18.6668 20.2574 18.2249C20.669 17.7829 21.239 17.5222 21.8425 17.5001H21.9275C22.5145 17.4971 23.0801 17.7199 23.5074 18.1224C23.9347 18.5249 24.1909 19.0763 24.223 19.6624C24.2552 20.2485 24.0607 20.8245 23.68 21.2713C23.2992 21.7181 22.7613 22.0013 22.1775 22.0626L22.1725 22.0276ZM29.34 16.9776C32.3925 20.4376 32.475 24.5101 31.295 26.8726C30.195 29.0301 27.295 31.1901 23.395 31.1901C21.5744 31.1529 19.7834 30.7222 18.145 29.9276C18.7175 29.5201 19.53 28.8676 19.9775 28.4601C21.241 29.0074 22.6007 29.2981 23.9775 29.3151C26.5025 29.3151 28.415 28.1351 29.555 25.9776C30.2875 24.5526 30.33 22.8826 29.6375 21.1726C28.7878 19.021 27.2757 17.1955 25.32 15.9601C22.7542 14.2304 19.7294 13.3084 16.635 13.3126H15.9025C15.7317 13.7071 15.4538 14.046 15.1003 14.2908C14.7469 14.5355 14.3319 14.6765 13.9025 14.6976H13.825C13.231 14.6903 12.6633 14.4517 12.2424 14.0325C11.8215 13.6134 11.5806 13.0467 11.5709 12.4527C11.5611 11.8588 11.7833 11.2845 12.1901 10.8517C12.597 10.419 13.1566 10.1619 13.75 10.1351H13.8325C14.246 10.1354 14.6514 10.2496 15.0043 10.4653C15.3571 10.681 15.6437 10.9897 15.8325 11.3576H16.485C21.685 11.3576 26.25 13.3526 29.34 16.9776ZM8.6525 22.7276C8.60969 22.3124 8.71026 21.8951 8.9375 21.5451C6.6575 17.5951 5.4375 12.5876 7.31 7.37506C8.6525 3.45756 12.0325 0.810059 15.6975 0.810059C19.6075 0.810059 23.68 4.23256 24.1675 10.8276C23.5575 10.6251 22.6675 10.3276 22.1325 10.2176C22 8.06006 20.1775 2.68506 15.86 2.76506C14.3125 2.80756 12.0325 3.54006 10.86 5.04506C9.40966 6.84161 8.56594 9.05156 8.45 11.3576C8.17518 14.5195 8.91703 17.6866 10.5675 20.3976C10.6586 20.3643 10.7557 20.3506 10.8525 20.3576H10.9325C11.5372 20.3466 12.1215 20.5763 12.5568 20.9962C12.9921 21.416 13.2428 21.9916 13.2537 22.5963C13.2647 23.201 13.035 23.7853 12.6151 24.2206C12.1953 24.6559 11.6197 24.9066 11.015 24.9176H10.9325C10.3426 24.9155 9.77622 24.6858 9.35146 24.2764C8.92671 23.867 8.67632 23.3095 8.6525 22.7201V22.7276Z" fill="#764ABC"/>
</g>
<defs>
<clipPath id="clip0_5708_2186">
<rect width="32" height="32" fill="white"/>
</clipPath>
</defs>
</svg>
