<svg width="32" height="29" viewBox="0 0 32 29" fill="none" xmlns="http://www.w3.org/2000/svg">
<g clip-path="url(#clip0_5708_3123)">
<path d="M31.4012 23.48C32.1243 24.7356 32.1943 26.0559 31.5934 27.0996C30.9934 28.1442 29.8195 28.7424 28.3726 28.7424H25.6457C25.678 28.234 25.6995 27.7212 25.6995 27.2048C25.6995 26.6263 25.6727 26.0551 25.6332 25.4856L27.4268 25.4838C27.8678 25.4838 28.2243 25.1255 28.2243 24.6835C28.2243 24.5503 28.1913 24.4192 28.1283 24.3019L16.6963 4.43146C16.6273 4.30853 16.5267 4.20621 16.405 4.13503C16.2833 4.06385 16.1448 4.02638 16.0038 4.02648C15.8664 4.02652 15.7313 4.06211 15.6117 4.12979C15.4921 4.19746 15.392 4.29493 15.3212 4.41271L13.5061 7.56796C19.0226 11.7265 22.7312 18.1691 23.2386 25.4838C23.2781 26.0523 23.305 26.6237 23.305 27.2029C23.305 27.7194 23.2835 28.2313 23.252 28.7406H14.3466C14.3951 28.234 14.423 27.7221 14.423 27.2029C14.423 26.6218 14.3889 26.0488 14.326 25.4838C13.886 21.4583 11.9154 17.8907 9.01337 15.373L7.76304 17.5449C9.95545 19.5855 11.4519 22.3645 11.8587 25.4838C11.9325 26.0469 11.9737 26.62 11.9737 27.2029C11.9737 27.7221 11.9396 28.2358 11.8812 28.7406H3.62609C2.17915 28.7406 1.0052 28.1415 0.405226 27.0969C-0.195624 26.0532 -0.125627 24.7339 0.597468 23.4773L2.2924 20.5727C3.26064 21.0935 4.13563 21.7715 4.88166 22.5791L3.87133 24.3C3.80855 24.4175 3.7755 24.5485 3.77508 24.6817C3.77489 24.7866 3.79538 24.8905 3.83537 24.9875C3.87537 25.0845 3.9341 25.1726 4.00819 25.2468C4.08229 25.3211 4.17029 25.38 4.26717 25.4202C4.36405 25.4604 4.46791 25.4811 4.5728 25.4811L8.57676 25.483C8.2409 23.5635 7.35531 21.8319 6.08711 20.4603C5.33977 19.6547 4.46681 18.9729 3.49497 18.4511L7.96604 10.6827C8.91535 11.2134 9.81715 11.825 10.6614 12.5106C14.5146 15.6371 17.1167 20.2547 17.5881 25.4821H19.9845C19.4958 19.3708 16.4251 13.9818 11.8677 10.4142C11.012 9.74394 10.1064 9.13984 9.15886 8.60716L12.9752 1.97682C13.6973 0.720243 14.8019 -0.000976562 16.0038 -0.000976562C17.2046 -0.000976562 18.3085 0.720243 19.0316 1.97682L31.4012 23.48Z" fill="#FB2D26"/>
</g>
<defs>
<clipPath id="clip0_5708_3123">
<rect width="32" height="28.7488" fill="white"/>
</clipPath>
</defs>
</svg>
