<svg width="32" height="32" viewBox="0 0 32 32" fill="none" xmlns="http://www.w3.org/2000/svg">
<path d="M26.8365 0.50309L25.108 0.61084L25.2427 4.20509C25.2497 4.40384 25.0205 4.51984 24.8642 4.39659L23.7067 3.48409L22.3355 4.52459C22.3002 4.5514 22.258 4.56761 22.2138 4.57132C22.1696 4.57502 22.1253 4.56607 22.086 4.54551C22.0467 4.52495 22.0141 4.49364 21.992 4.45522C21.9698 4.41681 21.9591 4.37289 21.961 4.32859L22.1152 0.79784L4.96825 1.87009C4.56036 1.89551 4.17857 2.07937 3.90438 2.38242C3.6302 2.68547 3.48534 3.0837 3.50075 3.49209L4.46575 29.2016C4.48048 29.5944 4.6424 29.9673 4.91936 30.2463C5.19632 30.5252 5.56805 30.6898 5.96075 30.7073L26.8637 31.6458C27.0751 31.6552 27.2861 31.6217 27.4841 31.5473C27.6821 31.473 27.863 31.3594 28.016 31.2133C28.169 31.0673 28.2908 30.8917 28.374 30.6972C28.4572 30.5027 28.5 30.2934 28.5 30.0818V2.06609C28.5001 1.85217 28.4564 1.64051 28.3714 1.44417C28.2865 1.24783 28.1622 1.071 28.0062 0.92459C27.8504 0.778103 27.6662 0.665121 27.4651 0.592623C27.2639 0.520126 27.0499 0.489654 26.8365 0.50309ZM16.4715 5.79984C20.5485 5.79984 22.775 7.98059 22.775 12.1296C22.224 12.5578 18.12 12.8496 18.12 12.2403C18.2065 9.91534 17.1657 9.81359 16.5875 9.81359C16.038 9.81359 15.1127 9.97909 15.1127 11.2246C15.1127 14.2966 23.0352 14.1308 23.0352 20.3306C23.0352 23.8181 20.2015 25.7443 16.5875 25.7443C12.8575 25.7443 9.59825 24.2353 9.96625 19.0036C10.1107 18.3893 14.8525 18.5353 14.8525 19.0036C14.795 21.1623 15.2862 21.7973 16.5292 21.7973C17.4835 21.7973 17.9175 21.2716 17.9175 20.3858C17.9175 17.2306 10.1107 17.1201 10.1107 11.3356C10.1107 8.01434 12.395 5.79984 16.4715 5.79984Z" fill="#FF4785"/>
</svg>
