<svg width="32" height="32" viewBox="0 0 32 32" fill="none" xmlns="http://www.w3.org/2000/svg">
<g clip-path="url(#clip0_5708_2198)">
<path d="M8.0245 15.3652C7.8995 16.9391 9.28219 18.0984 10.2258 18.0984C11.1708 18.0543 14.8509 14.953 14.8509 14.953C16.5818 12.7639 16.5893 11.7906 16.5893 11.0255C16.4449 7.64781 10.2912 12.7924 8.0245 15.3652ZM23.2473 14.0579C24.0826 12.29 22.9588 10.3264 20.5143 12.0511C18.5718 13.2857 16.057 15.8256 14.8534 16.8199C14.2952 17.9474 15.7103 21.0418 17.9528 19.408C20.6034 17.4823 22.5391 15.6714 23.2473 14.0579ZM25.5223 3.36337L26.0606 0H32V6.13963L29.8233 6.16563L27.2024 15.0428C27.3655 18.1758 25.7768 18.2267 25.5738 19.6643C25.0637 23.2774 21.0232 26.2338 19.4784 26.2338C18.4481 26.2039 17.6949 25.0231 17.4419 23.9941C20.3469 20.7809 24.2534 18.2559 24.2534 18.2559C24.4973 16.5661 23.9612 16.0281 25.7642 14.5881L27.4847 5.542C26.0153 4.57169 25.3297 4.58675 25.5223 3.36337ZM13.9294 18.3446C15.4358 21.3799 17.6123 21.459 20.9869 17.5947C21.0671 17.9519 21.1549 18.3263 20.9937 19.225C14.129 25.3649 7.66337 31.3406 5.69531 32H0V30.4725C0.92625 29.188 8.528 22.9181 13.9294 18.3446ZM24.0749 24.2215C23.7658 26.8488 21.3705 29.1478 18.1698 32H8.02575L16.5775 24.7966C18.0537 28.1562 20.6759 27.6696 24.0749 24.2215H24.0749ZM12.0787 18.2581L0 28.5534V21.874L7.10813 16.0875C7.48838 18.2413 9.81781 20.1379 12.0787 18.2582V18.2581Z" fill="#FCCA3E"/>
</g>
<defs>
<clipPath id="clip0_5708_2198">
<rect width="32" height="32" fill="white"/>
</clipPath>
</defs>
</svg>
