<svg width="32" height="32" viewBox="0 0 32 32" fill="none" xmlns="http://www.w3.org/2000/svg">
<g clip-path="url(#clip0_5708_2842)">
<path d="M18.6295 31.4678C17.8128 32.4971 16.1535 31.9333 16.1353 30.6186L15.8463 11.3921H28.775C31.1163 11.3921 32.4218 14.0963 30.9658 15.9293L18.6295 31.4678Z" fill="url(#paint0_linear_5708_2842)"/>
<path d="M18.6295 31.4678C17.8128 32.4971 16.1535 31.9333 16.1353 30.6186L15.8463 11.3921H28.775C31.1163 11.3921 32.4218 14.0963 30.9658 15.9293L18.6295 31.4678Z" fill="url(#paint1_linear_5708_2842)" fill-opacity="0.2"/>
<path d="M13.371 0.532058C14.1877 -0.497192 15.8472 0.0665585 15.8652 1.38106L15.9922 20.6078H3.2255C0.884249 20.6078 -0.421251 17.9036 1.0345 16.0706L13.371 0.532058Z" fill="#3ECF8E"/>
</g>
<defs>
<linearGradient id="paint0_linear_5708_2842" x1="15.8474" y1="15.6564" x2="27.3375" y2="20.4753" gradientUnits="userSpaceOnUse">
<stop stop-color="#249361"/>
<stop offset="1" stop-color="#3ECF8E"/>
</linearGradient>
<linearGradient id="paint1_linear_5708_2842" x1="10.7533" y1="8.68159" x2="15.9932" y2="18.546" gradientUnits="userSpaceOnUse">
<stop/>
<stop offset="1" stop-opacity="0"/>
</linearGradient>
<clipPath id="clip0_5708_2842">
<rect width="32" height="32" fill="white"/>
</clipPath>
</defs>
</svg>
