<svg width="32" height="32" viewBox="0 0 32 32" fill="none" xmlns="http://www.w3.org/2000/svg">
<g clip-path="url(#clip0_5708_2446)">
<path d="M15.9998 31.2365C7.598 31.2365 0.762253 24.4015 0.762253 15.9992C0.762503 7.59721 7.598 0.762207 16 0.762207C24.402 0.762207 31.2375 7.59771 31.2375 15.9997C31.2375 24.4015 24.4018 31.2362 16 31.2362L15.9998 31.2365Z" fill="#85EA2D"/>
<path d="M10.075 10.828C10.0255 11.3755 10.093 11.9415 10.0568 12.495C10.0135 13.0492 9.94575 13.5967 9.83475 14.144C9.681 14.9255 9.19475 15.5162 8.52475 16.0085C9.82925 16.8575 9.9765 18.174 10.0627 19.5092C10.1058 20.2292 10.0872 20.9555 10.1613 21.6687C10.2165 22.2225 10.4317 22.3642 11.0042 22.3822C11.238 22.3885 11.4777 22.3822 11.7487 22.3822V24.0927C10.0567 24.3817 8.66025 23.9022 8.31525 22.4687C8.20186 21.942 8.13196 21.4069 8.10625 20.8687C8.06925 20.297 8.1305 19.7245 8.08775 19.1527C7.96475 17.5835 7.7615 17.0545 6.26075 16.9805V15.0305C6.371 15.0055 6.47575 14.987 6.58625 14.9747C7.41075 14.9317 7.7615 14.6792 7.93975 13.8672C8.02531 13.4104 8.07679 12.9478 8.09375 12.4832C8.1555 11.591 8.13075 10.6807 8.2845 9.79474C8.4995 8.52124 9.287 7.90574 10.598 7.83174C10.967 7.81324 11.3425 7.83174 11.767 7.83174V9.57924C11.5885 9.59174 11.4345 9.61599 11.2747 9.61599C10.2102 9.57899 10.155 9.94199 10.075 10.828ZM12.1237 14.8762H12.099C11.4835 14.8455 10.9545 15.3252 10.9235 15.9407C10.893 16.562 11.3727 17.0915 11.9882 17.1217H12.062C12.671 17.1587 13.1938 16.6907 13.231 16.0817V16.0205C13.2435 15.399 12.7452 14.8887 12.1237 14.8762ZM15.9812 14.8762C15.3847 14.8577 14.8863 15.3252 14.8678 15.916C14.8678 15.9532 14.8678 15.9837 14.8737 16.0205C14.8737 16.6915 15.329 17.122 16.0182 17.122C16.695 17.122 17.1197 16.679 17.1197 15.9837C17.1135 15.3132 16.664 14.87 15.9812 14.8762ZM19.9315 14.8762C19.6294 14.8708 19.3373 14.9847 19.1185 15.1931C18.8997 15.4015 18.7718 15.6877 18.7625 15.9897C18.7621 16.1385 18.7911 16.2859 18.8478 16.4234C18.9045 16.561 18.9879 16.6859 19.0931 16.7911C19.1983 16.8963 19.3233 16.9797 19.4608 17.0364C19.5983 17.0932 19.7457 17.1222 19.8945 17.1217H19.907C20.473 17.2202 21.0452 16.6727 21.0823 16.0145C21.1128 15.4052 20.5595 14.8762 19.9315 14.8762ZM25.352 14.9685C24.6382 14.9377 24.281 14.6977 24.103 14.021C23.9925 13.5877 23.9246 13.1445 23.9002 12.698C23.8507 11.8735 23.8568 11.043 23.8015 10.2185C23.6725 8.26199 22.2572 7.57924 20.2022 7.91724V9.61524C20.5282 9.61524 20.7805 9.61524 21.0327 9.62149C21.4697 9.62749 21.802 9.79399 21.845 10.28C21.888 10.723 21.888 11.172 21.931 11.6212C22.0175 12.5137 22.0665 13.418 22.2202 14.2977C22.3557 15.0237 22.8542 15.5652 23.4753 16.008C22.3865 16.7402 22.0662 17.7862 22.011 18.9615C21.9805 19.7672 21.962 20.5795 21.919 21.3917C21.882 22.13 21.6237 22.37 20.879 22.3885C20.6702 22.3945 20.467 22.413 20.2332 22.4255V24.1665C20.6702 24.1665 21.07 24.1915 21.4697 24.1665C22.7125 24.0927 23.4632 23.49 23.7097 22.2837C23.814 21.6192 23.8752 20.9487 23.894 20.278C23.9367 19.663 23.931 19.0415 23.9925 18.4325C24.0848 17.4787 24.5215 17.0852 25.475 17.0235C25.5652 17.0125 25.6541 16.9919 25.74 16.9622V15.012C25.58 14.9935 25.469 14.9747 25.352 14.9685ZM16 1.52524C23.9942 1.52524 30.475 8.00524 30.475 15.9997C30.475 23.994 23.9942 30.4745 16 30.4745C8.006 30.4745 1.5255 23.994 1.5255 15.9995C1.5255 8.00599 8.006 1.52524 16 1.52524ZM16 0.000488288C7.1775 0.000238288 0 7.17774 0 16.0002C0 24.8222 7.1775 31.9997 16 31.9997C24.8223 31.9997 32 24.8222 32 15.9997C32 7.17724 24.8223 0.000738288 16 0.000738288V0.000488288Z" fill="#173647"/>
</g>
<defs>
<clipPath id="clip0_5708_2446">
<rect width="32" height="32" fill="white"/>
</clipPath>
</defs>
</svg>
