<svg width="32" height="32" viewBox="0 0 32 32" fill="none" xmlns="http://www.w3.org/2000/svg">
<g clip-path="url(#clip0_5708_2192)">
<path d="M16.001 6.40039C11.7343 6.40039 9.06851 8.53289 8.00101 12.7996C9.60051 10.6669 11.4678 9.86714 13.6005 10.4004C14.8183 10.7039 15.6885 11.5869 16.6523 12.5654C18.2208 14.1571 20.0363 15.9999 24.001 15.9999C28.2675 15.9999 30.9335 13.8671 32.001 9.59939C30.4013 11.7334 28.5343 12.5331 26.4013 11.9999C25.1838 11.6961 24.3145 10.8134 23.3495 9.83489C21.782 8.24314 19.967 6.40039 16.001 6.40039ZM8.00101 15.9999C3.73451 15.9999 1.06851 18.1326 0.00100708 22.4004C1.60051 20.2664 3.46751 19.4666 5.60051 19.9999C6.81826 20.3036 7.68851 21.1864 8.65226 22.1649C10.2208 23.7566 12.0363 25.5994 16.001 25.5994C20.2675 25.5994 22.9335 23.4669 24.001 19.2001C22.4013 21.3329 20.5343 22.1326 18.4013 21.5994C17.1838 21.2959 16.3145 20.4129 15.3495 19.4344C13.782 17.8426 11.967 15.9999 8.00101 15.9999Z" fill="#38BDF8"/>
</g>
<defs>
<clipPath id="clip0_5708_2192">
<rect width="32" height="32" fill="white"/>
</clipPath>
</defs>
</svg>
