<svg width="36" height="32" viewBox="0 0 36 32" fill="none" xmlns="http://www.w3.org/2000/svg">
<g clip-path="url(#clip0_5708_2936)">
<path d="M21.9811 19.8242L21.298 21.0106C21.1969 21.1862 21.0513 21.332 20.8758 21.4334C20.7004 21.5348 20.5014 21.5881 20.2988 21.5881H15.065C14.8623 21.5881 14.6633 21.5348 14.4879 21.4334C14.3125 21.332 14.1669 21.1862 14.0657 21.0106L13.3825 19.8242H21.9811ZM23.8938 16.5032L22.6892 18.5949H12.6746L11.47 16.5032H23.8938ZM22.7334 13.2556L23.8957 15.2738H11.468L12.6303 13.2556H22.7334ZM20.2986 10.1855C20.5013 10.1855 20.7003 10.2389 20.8758 10.3403C21.0512 10.4417 21.1969 10.5875 21.298 10.7631L22.0254 12.0262H13.3383L14.0659 10.7631C14.167 10.5875 14.3126 10.4417 14.488 10.3403C14.6634 10.2389 14.8625 10.1855 15.0651 10.1855H20.2988H20.2986Z" fill="#00435B"/>
<path d="M7.448 9.63509C6.86824 6.82382 6.74372 4.66758 7.11854 3.10195C7.34142 2.17075 7.7488 1.4111 8.36848 0.862921C9.02267 0.284278 9.84967 0.000312434 10.7791 0.000312434C12.312 0.000312434 13.9237 0.699443 15.6458 2.02744C16.3484 2.56922 17.0775 3.22216 17.8346 3.98668C17.895 3.90918 17.9631 3.836 18.039 3.76824C20.1797 1.86076 21.982 0.675373 23.5235 0.218469C24.4401 -0.0533919 25.3007 -0.0792702 26.0842 0.184521C26.9115 0.462782 27.5706 1.03836 28.0357 1.84435C28.8031 3.17457 29.0054 4.92247 28.7194 7.0808C28.6028 7.96052 28.4034 8.91871 28.1217 9.95704C28.228 9.96984 28.3345 9.99349 28.44 10.0284C31.156 10.9286 33.0793 11.8964 34.2437 13.0026C34.9366 13.6607 35.3889 14.3934 35.5525 15.2045C35.725 16.0606 35.5567 16.9191 35.0922 17.7246C34.3262 19.053 32.9176 20.1005 30.9111 20.9303C30.1055 21.2635 29.1938 21.5653 28.1752 21.8367C28.2217 21.9416 28.2579 22.053 28.2819 22.1699C28.8617 24.9812 28.9861 27.1374 28.6114 28.7031C28.3885 29.6343 27.981 30.3939 27.3613 30.9421C26.7073 31.5207 25.8801 31.8047 24.9509 31.8047C23.4178 31.8047 21.8063 31.1056 20.0841 29.7776C19.374 29.2299 18.6369 28.5689 17.871 27.7938C17.7903 27.9198 17.6928 28.0342 17.581 28.1336C15.4403 30.0414 13.638 31.2265 12.0965 31.6835C11.1799 31.9554 10.3194 31.9812 9.53579 31.7175C8.70852 31.4392 8.04946 30.8636 7.58434 30.0576C6.8169 28.7274 6.61461 26.9795 6.90066 24.8212C7.02156 23.9097 7.23123 22.9138 7.52925 21.832C7.41046 21.8199 7.29335 21.7949 7.18003 21.7573C4.46407 20.8571 2.54073 19.8893 1.37634 18.7831C0.683475 18.125 0.231162 17.3923 0.0675449 16.5812C-0.104977 15.7251 0.0633709 14.8664 0.527788 14.061C1.29384 12.7327 2.7024 11.685 4.70894 10.8554C5.53857 10.5122 6.48062 10.2025 7.53607 9.92476C7.49786 9.83112 7.46838 9.73416 7.448 9.63509Z" fill="#002B3B"/>
<path d="M26.387 22.4466C26.5166 22.4236 26.6501 22.4514 26.7598 22.5242C26.8695 22.597 26.947 22.7092 26.9762 22.8375L26.9794 22.8531L27.0082 23.0027C27.9418 27.9106 27.2841 30.3648 25.0353 30.3648C22.8353 30.3648 20.0344 28.2707 16.633 24.0826C16.5725 24.0082 16.5342 23.9183 16.5223 23.8231C16.5104 23.728 16.5254 23.6314 16.5657 23.5444C16.6059 23.4574 16.6698 23.3834 16.75 23.3309C16.8302 23.2783 16.9235 23.2493 17.0193 23.2471H17.0352L17.2144 23.2484C18.6458 23.2562 20.0372 23.2062 21.3889 23.0987C22.9843 22.9717 24.6504 22.7543 26.387 22.4466ZM10.9434 18.7365L10.952 18.7511L11.0419 18.9079C11.7621 20.1601 12.5125 21.3486 13.293 22.4734C14.2124 23.7979 15.2461 25.1389 16.3942 26.4962C16.4794 26.597 16.5225 26.7267 16.5145 26.8584C16.5065 26.9901 16.448 27.1136 16.3512 27.2033L16.3383 27.2148L16.2228 27.3143C12.4236 30.5696 9.95429 31.2194 8.81495 29.2638C7.69954 27.3498 8.10399 23.8693 10.028 18.8225C10.0621 18.7331 10.1205 18.655 10.1967 18.5971C10.2728 18.5392 10.3637 18.5037 10.4589 18.4948C10.5542 18.4858 10.6501 18.5037 10.7357 18.5464C10.8213 18.5892 10.8932 18.655 10.9434 18.7365ZM28.3148 11.4942L28.3304 11.4994L28.4734 11.5486C33.1628 13.1799 34.9443 14.9726 33.8182 16.9267C32.7169 18.8378 29.5149 20.2294 24.2125 21.1012C24.1164 21.117 24.0178 21.1051 23.9282 21.0669C23.8386 21.0287 23.7618 20.9657 23.7067 20.8854C23.6516 20.8051 23.6206 20.7107 23.6172 20.6134C23.6138 20.5161 23.6382 20.4198 23.6876 20.3358C24.4469 19.0439 25.1311 17.7586 25.7396 16.4795C26.4297 15.0291 27.0774 13.4721 27.6826 11.8089C27.7265 11.688 27.8143 11.5881 27.9286 11.529C28.0428 11.4698 28.1751 11.4558 28.2992 11.4896L28.3148 11.4942ZM11.7503 10.6729C11.8084 10.707 11.8591 10.7522 11.8997 10.8059C11.9403 10.8596 11.9698 10.9208 11.9868 10.9859C12.0037 11.0511 12.0076 11.1189 11.9983 11.1856C11.989 11.2522 11.9667 11.3164 11.9326 11.3744C11.1729 12.6663 10.489 13.9517 9.88041 15.2307C9.19032 16.6811 8.54267 18.238 7.93745 19.9013C7.89252 20.0248 7.80186 20.1264 7.6842 20.1849C7.56654 20.2435 7.43088 20.2546 7.30525 20.216L7.28966 20.2109L7.14664 20.1615C2.45725 18.5303 0.675681 16.7375 1.8018 14.7835C2.90316 12.8723 6.10511 11.4809 11.4075 10.6091C11.5258 10.5896 11.6471 10.6121 11.7503 10.6729ZM26.8051 2.63843C27.9205 4.55259 27.516 8.03308 25.592 13.0799C25.5579 13.1693 25.4995 13.2474 25.4234 13.3053C25.3472 13.3632 25.2563 13.3987 25.1611 13.4076C25.0658 13.4166 24.9699 13.3987 24.8843 13.356C24.7987 13.3132 24.7268 13.2474 24.6767 13.1659L24.668 13.1513L24.5781 12.9945C23.8579 11.7423 23.1075 10.5538 22.327 9.42897C21.4076 8.10445 20.3739 6.76351 19.2258 5.40615C19.1406 5.30542 19.0975 5.1757 19.1055 5.044C19.1135 4.9123 19.172 4.78876 19.2688 4.69909L19.2817 4.68755L19.3972 4.58807C23.1964 1.33283 25.6657 0.682954 26.8051 2.63843ZM10.777 1.47363C12.9772 1.47363 15.778 3.56755 19.1793 7.75565C19.2398 7.83009 19.2781 7.91998 19.29 8.01512C19.3019 8.11025 19.2869 8.20682 19.2466 8.29384C19.2064 8.38086 19.1425 8.45485 19.0623 8.50741C18.9821 8.55996 18.8888 8.58896 18.793 8.59113H18.7771L18.5979 8.59001C17.1667 8.58222 15.7751 8.63217 14.4236 8.73972C12.828 8.86675 11.1619 9.08407 9.42532 9.39182C9.29571 9.41476 9.16225 9.38695 9.05258 9.31417C8.94291 9.24139 8.86545 9.12921 8.83624 9.00087L8.8329 8.98515L8.8041 8.83572C7.87053 3.92762 8.52806 1.47363 10.777 1.47363Z" fill="#FF4154"/>
<path d="M15.4858 10.2495H19.879C20.1947 10.2495 20.5047 10.3328 20.7778 10.491C21.051 10.6491 21.2775 10.8766 21.4346 11.1504L23.6405 14.994C23.7965 15.2657 23.8785 15.5735 23.8785 15.8868C23.8785 16.2001 23.7965 16.5079 23.6405 16.7796L21.4346 20.6232C21.2775 20.897 21.051 21.1244 20.7778 21.2826C20.5047 21.4408 20.1946 21.5241 19.879 21.5241H15.4858C14.8433 21.5241 14.2499 21.1804 13.9301 20.6232L11.7244 16.7796C11.5685 16.5079 11.4865 16.2001 11.4865 15.8868C11.4865 15.5735 11.5685 15.2657 11.7244 14.994L13.9302 11.1504C14.0873 10.8766 14.3139 10.6491 14.5871 10.491C14.8602 10.3328 15.1702 10.2495 15.4858 10.2495ZM19.2094 11.4096C19.8522 11.4096 20.446 11.7537 20.7656 12.3113L22.3038 14.9948C22.4594 15.2663 22.5413 15.5738 22.5413 15.8868C22.5413 16.1997 22.4594 16.5073 22.3038 16.7788L20.7656 19.4623C20.6085 19.7363 20.3819 19.9639 20.1086 20.1222C19.8354 20.2805 19.5252 20.3639 19.2094 20.3639H16.1555C15.5127 20.3639 14.9189 20.0199 14.5993 19.4623L13.0611 16.7788C12.9054 16.5073 12.8236 16.1997 12.8236 15.8868C12.8236 15.5738 12.9054 15.2663 13.0611 14.9948L14.5993 12.3113C14.7563 12.0373 14.9829 11.8097 15.2562 11.6514C15.5294 11.4931 15.8396 11.4097 16.1553 11.4097L19.2094 11.4096ZM18.4877 12.6785H16.8771C16.5616 12.6784 16.2517 12.7617 15.9786 12.9197C15.7055 13.0778 15.479 13.305 15.3218 13.5786L14.509 14.9932C14.3528 15.2651 14.2705 15.5732 14.2705 15.8868C14.2705 16.2004 14.3528 16.5085 14.509 16.7804L15.3218 18.1951C15.479 18.4687 15.7055 18.696 15.9786 18.854C16.2517 19.0121 16.5616 19.0953 16.8771 19.0953H18.4877C19.1299 19.0953 19.7232 18.7519 20.043 18.1951L20.8558 16.7804C21.0121 16.5085 21.0943 16.2004 21.0943 15.8868C21.0943 15.5732 21.0121 15.2651 20.8558 14.9932L20.043 13.5785C19.8859 13.3049 19.6593 13.0776 19.3862 12.9196C19.1132 12.7615 18.8032 12.6784 18.4877 12.6785ZM17.7929 13.8929C18.4346 13.8929 19.0274 14.2357 19.3474 14.7917L19.4627 14.9921C19.6194 15.2642 19.7018 15.5728 19.7018 15.8868C19.7018 16.2008 19.6194 16.5094 19.4627 16.7815L19.3474 16.9819C19.1901 17.2551 18.9636 17.482 18.6907 17.6398C18.4178 17.7976 18.1081 17.8807 17.7929 17.8807H17.572C17.2567 17.8807 16.947 17.7976 16.6741 17.6398C16.4012 17.482 16.1747 17.2551 16.0174 16.9819L15.9021 16.7815C15.7455 16.5094 15.663 16.2008 15.663 15.8868C15.663 15.5728 15.7455 15.2642 15.9021 14.9921L16.0174 14.7917C16.1747 14.5185 16.4012 14.2916 16.6741 14.1338C16.947 13.976 17.2567 13.8929 17.572 13.8929H17.7929ZM17.6827 15.0893C17.5426 15.0892 17.4049 15.1261 17.2835 15.1961C17.1622 15.266 17.0614 15.3668 16.9912 15.4881C16.9212 15.6093 16.8843 15.7468 16.8843 15.8868C16.8843 16.0268 16.9212 16.1643 16.9912 16.2855C17.0613 16.4069 17.1621 16.5076 17.2834 16.5776C17.4048 16.6477 17.5424 16.6845 17.6825 16.6845C17.8226 16.6845 17.9602 16.6477 18.0816 16.5776C18.2029 16.5076 18.3037 16.4069 18.3738 16.2855C18.4438 16.1643 18.4807 16.0268 18.4807 15.8868C18.4807 15.7468 18.4438 15.6093 18.3738 15.4881C18.3037 15.3668 18.2029 15.2661 18.0816 15.1961C17.9603 15.1261 17.8227 15.0893 17.6827 15.0893ZM11.2119 15.8868H12.6477H11.2119Z" fill="#FFD94C"/>
</g>
<defs>
<clipPath id="clip0_5708_2936">
<rect width="35.62" height="32" fill="white"/>
</clipPath>
</defs>
</svg>
