<svg width="32" height="32" viewBox="0 0 32 32" fill="none" xmlns="http://www.w3.org/2000/svg">
<g clip-path="url(#clip0_5708_2554)">
<path d="M24.0145 10.2049L16.3645 21.2659C16.3038 21.3537 16.2227 21.4254 16.1281 21.4749C16.0335 21.5243 15.9284 21.5501 15.8217 21.5499C15.7149 21.5498 15.6099 21.5237 15.5155 21.4739C15.4211 21.4241 15.3402 21.3521 15.2797 21.2642C15.1995 21.1467 15.1599 21.0061 15.167 20.8639L15.4732 14.7569L10.5302 13.7089C10.4249 13.6865 10.3267 13.6385 10.2442 13.5692C10.1618 13.4999 10.0977 13.4114 10.0575 13.3114C10.0175 13.2115 10.0029 13.1032 10.0151 12.9963C10.0272 12.8894 10.0656 12.7871 10.127 12.6987L17.777 1.63768C17.8582 1.52 17.9756 1.43199 18.1113 1.38697C18.2471 1.34195 18.3938 1.34238 18.5292 1.38818C18.6645 1.43351 18.7812 1.52173 18.8617 1.63943C18.9422 1.75693 18.9817 1.89743 18.9745 2.03968L18.6685 8.14668L23.611 9.19468C23.7167 9.21718 23.8152 9.26518 23.8977 9.33468C24.0222 9.43903 24.1031 9.58611 24.1247 9.74706C24.1463 9.90801 24.107 10.0715 24.0145 10.2049Z" fill="#FCC72B"/>
<path d="M16.0033 30.5461C15.7998 30.5462 15.5983 30.5062 15.4103 30.4283C15.2223 30.3505 15.0516 30.2363 14.9078 30.0924L7.67925 22.8644C7.4635 22.6476 7.31677 22.3718 7.25756 22.0717C7.19835 21.7716 7.2293 21.4608 7.34652 21.1783C7.46375 20.8958 7.66198 20.6543 7.91625 20.4843C8.17051 20.3144 8.4694 20.2235 8.77525 20.2231C9.18536 20.2226 9.57894 20.3847 9.86975 20.6739L16.0033 26.8064L29.3648 13.4454C29.6552 13.1549 30.0492 12.9917 30.46 12.9917C30.8708 12.9917 31.2648 13.1549 31.5553 13.4454C31.8457 13.7358 32.0089 14.1298 32.0089 14.5406C32.0089 14.9514 31.8457 15.3454 31.5553 15.6359L17.0983 30.0924C16.9546 30.2364 16.784 30.3507 16.596 30.4285C16.4081 30.5064 16.2067 30.5464 16.0033 30.5461Z" fill="#729B1B"/>
<path d="M15.997 30.5461C16.2005 30.5461 16.402 30.5064 16.5897 30.4286C16.7777 30.3507 16.9485 30.2364 17.0922 30.0924L24.3207 22.8644C24.6101 22.5737 24.7723 22.1801 24.7717 21.77C24.7711 21.3599 24.6079 20.9667 24.3177 20.6769C24.0277 20.387 23.6347 20.2239 23.2246 20.2233C22.8146 20.2228 22.421 20.3848 22.1302 20.6739L15.997 26.8064L2.635 13.4454C2.3435 13.1598 1.95111 13.0008 1.54306 13.003C1.13502 13.0051 0.744286 13.1681 0.455752 13.4566C0.167217 13.7452 0.00418755 14.1359 0.00208061 14.5439C-2.63213e-05 14.952 0.158959 15.3444 0.444499 15.6359L14.9015 30.0924C15.0451 30.2364 15.2158 30.3506 15.4037 30.4285C15.5916 30.5064 15.7931 30.5463 15.9965 30.5461H15.997Z" fill="#729B1B" fill-opacity="0.5"/>
</g>
<defs>
<clipPath id="clip0_5708_2554">
<rect width="32" height="32" fill="white"/>
</clipPath>
</defs>
</svg>
