<svg width="32" height="32" viewBox="0 0 32 32" fill="none" xmlns="http://www.w3.org/2000/svg">
<path d="M31.1915 4.88018L16.831 30.5597C16.5342 31.0899 15.7725 31.0929 15.4718 30.5657L0.82625 4.88318C0.498 4.30768 0.98925 3.61143 1.6415 3.72768L16.0175 6.29693C16.1092 6.31368 16.2033 6.31368 16.295 6.29693L30.37 3.73168C31.0195 3.61343 31.5138 4.30393 31.1915 4.88018Z" fill="url(#paint0_linear_5708_2244)"/>
<path d="M22.865 0.357619L12.2385 2.43962C12.1537 2.45619 12.0768 2.50047 12.0198 2.56549C11.9629 2.63052 11.9292 2.71261 11.924 2.79887L11.2697 13.8409C11.2662 13.9014 11.2769 13.962 11.3008 14.0177C11.3247 14.0734 11.3613 14.1228 11.4076 14.162C11.454 14.2011 11.5088 14.229 11.5677 14.2433C11.6267 14.2576 11.6881 14.2579 11.7472 14.2444L14.7063 13.5606C14.77 13.546 14.8364 13.5476 14.8993 13.5653C14.9623 13.5829 15.0198 13.6161 15.0665 13.6618C15.1133 13.7075 15.1479 13.7642 15.167 13.8267C15.1862 13.8892 15.1894 13.9556 15.1763 14.0196L14.297 18.3244C14.2836 18.3906 14.2876 18.4592 14.3086 18.5235C14.3296 18.5877 14.367 18.6454 14.417 18.6909C14.467 18.7364 14.528 18.7681 14.5939 18.783C14.6599 18.7978 14.7286 18.7953 14.7933 18.7756L16.6203 18.2199C16.9035 18.1339 17.176 18.3829 17.1165 18.6729L15.719 25.4346C15.632 25.8576 16.1945 26.0881 16.429 25.7256L16.5853 25.4836L25.2453 8.20112C25.3908 7.91112 25.14 7.58112 24.8228 7.64262L21.7765 8.23062C21.711 8.24335 21.6432 8.23902 21.5798 8.21804C21.5164 8.19706 21.4595 8.16013 21.4145 8.11081C21.3695 8.06148 21.3379 8.00141 21.3228 7.93636C21.3077 7.87132 21.3096 7.80348 21.3283 7.73937L23.3158 0.848869C23.3344 0.78453 23.3362 0.716463 23.321 0.651228C23.3057 0.585993 23.2739 0.525792 23.2286 0.476426C23.1833 0.427061 23.126 0.390196 23.0624 0.369387C22.9987 0.348577 22.9307 0.344525 22.865 0.357619Z" fill="url(#paint1_linear_5708_2244)"/>
<defs>
<linearGradient id="paint0_linear_5708_2244" x1="0.4683" y1="2.81008" x2="18.3417" y2="27.0836" gradientUnits="userSpaceOnUse">
<stop stop-color="#41D1FF"/>
<stop offset="1" stop-color="#BD34FE"/>
</linearGradient>
<linearGradient id="paint1_linear_5708_2244" x1="15.1925" y1="0.922614" x2="18.4257" y2="23.1022" gradientUnits="userSpaceOnUse">
<stop stop-color="#FFEA83"/>
<stop offset="0.083" stop-color="#FFDD35"/>
<stop offset="1" stop-color="#FFA800"/>
</linearGradient>
</defs>
</svg>
